<svg width="39" height="39" viewBox="0 0 39 39" fill="none" xmlns="http://www.w3.org/2000/svg">
<path d="M6.50001 18.3851C5.88427 18.3851 5.38512 18.8843 5.38512 19.5C5.38512 20.1157 5.88427 20.6149 6.50001 20.6149L6.50001 18.3851ZM32.5 20.6149C33.1157 20.6149 33.6149 20.1157 33.6149 19.5C33.6149 18.8843 33.1157 18.3851 32.5 18.3851L32.5 20.6149ZM26.7848 10.5831C26.3475 10.1497 25.6416 10.1528 25.2081 10.5902C24.7747 11.0275 24.7778 11.7334 25.2152 12.1669L26.7848 10.5831ZM28.8648 14.2144L28.08 15.0062L28.8648 14.2144ZM28.8648 24.7856L28.08 23.9938L28.8648 24.7856ZM25.2152 26.8331C24.7778 27.2666 24.7747 27.9725 25.2081 28.4098C25.6416 28.8471 26.3475 28.8503 26.7848 28.4168L25.2152 26.8331ZM32.4677 18.9908L33.5736 18.8499L33.5736 18.8499L32.4677 18.9908ZM32.4677 20.0092L33.5736 20.1501L33.5736 20.1501L32.4677 20.0092ZM6.50001 20.6149L32.5 20.6149L32.5 18.3851L6.50001 18.3851L6.50001 20.6149ZM25.2152 12.1669L28.08 15.0062L29.6496 13.4225L26.7848 10.5831L25.2152 12.1669ZM28.08 23.9938L25.2152 26.8331L26.7848 28.4168L29.6496 25.5775L28.08 23.9938ZM28.08 15.0062C29.2409 16.1569 30.0435 16.9547 30.5878 17.6324C31.1179 18.2924 31.3105 18.7295 31.3617 19.1318L33.5736 18.8499C33.449 17.8722 32.9825 17.0532 32.3263 16.2361C31.6842 15.4366 30.7733 14.5362 29.6496 13.4225L28.08 15.0062ZM29.6496 25.5775C30.7733 24.4638 31.6842 23.5633 32.3263 22.7638C32.9825 21.9467 33.449 21.1278 33.5736 20.1501L31.3617 19.8682C31.3104 20.2705 31.1179 20.7076 30.5878 21.3676C30.0435 22.0453 29.2409 22.8431 28.08 23.9938L29.6496 25.5775ZM31.3617 19.1318C31.3929 19.3763 31.3929 19.6237 31.3617 19.8682L33.5736 20.1501C33.6286 19.7184 33.6286 19.2816 33.5736 18.8499L31.3617 19.1318Z" fill="black"/>
</svg>
