<svg width="468" height="468" viewBox="0 0 468 468" fill="none" xmlns="http://www.w3.org/2000/svg">
<mask id="mask0_1_493" style="mask-type:alpha" maskUnits="userSpaceOnUse" x="0" y="0" width="468" height="468">
<rect width="468" height="468" rx="55" fill="url(#paint0_linear_1_493)"/>
</mask>
<g mask="url(#mask0_1_493)">
<rect x="-0.00051912" width="468" height="468" rx="55" fill="#E3B748"/>
<path d="M398.25 -4.93396H454.615C454.615 -4.93396 456.603 -1.68378 457.322 0.234606L459.15 5.10797C461.418 10.8553 463.528 16.7085 465.479 22.6677C467.145 27.758 467.809 33.162 469.367 38.2867C470.124 40.7764 470.984 43.2266 471.459 45.5996C472.431 50.4586 473.079 52.4022 474.051 55.9655C476.271 65.9611 481.202 75.1517 488.304 82.528L494.134 88.6827L503.528 98.4007C512.612 109.881 517.828 123.942 518.429 138.568V142.132C518.429 150.554 520.049 159.3 521.669 168.046C525.424 188.061 527.913 208.293 529.119 228.622C529.309 235.589 530.621 242.48 533.006 249.03C534.35 253.113 536.726 256.78 539.905 259.675C541.546 261.169 543.372 262.432 545.331 263.435C549.001 265.314 553.228 265.55 557.35 265.55H557.625C564.709 265.365 571.536 262.861 577.061 258.424C586.36 250.914 593.142 240.742 596.497 229.27C599.498 218.733 601.025 207.832 601.032 196.876C600.888 188.842 601.539 180.812 602.976 172.905C605.417 156.092 613.947 140.761 626.947 129.822C631.806 125.935 637.313 122.048 642.496 118.485L646.059 116.217C653.624 110.169 659.251 102.037 662.245 92.8254C664.64 85.4556 665.265 77.6536 664.106 70.045C663.528 66.2468 662.117 62.508 659.34 59.8527C657.206 57.4576 654.619 55.5088 651.728 54.1189C648.837 52.7289 645.699 51.9253 642.496 51.7543C638.181 51.4661 633.853 51.4661 629.538 51.7543H615.609C611.009 51.702 606.435 51.0486 602.004 49.8107C583.795 44.5243 567.777 33.5048 556.33 18.3892C551.819 12.6972 548.219 6.34214 545.656 -0.448915C545.452 -0.991567 545.316 -0.975224 545.316 -1.55523C545.316 -2.26486 545.891 -3.63823 546.601 -3.63823H568.142C570.567 -3.63823 573.204 -2.9567 574.146 -0.722831C577.488 6.40724 582.224 12.7956 588.075 18.0653C598.701 27.095 612.372 31.7293 626.299 31.0226H630.759C633.397 31.0226 636.032 30.8329 638.643 30.4551L653.774 28.265C657.475 27.7293 661.221 27.6094 664.96 27.6839C666.458 27.7138 667.957 27.7197 669.456 27.7017C673.928 27.6478 678.737 27.1415 681.954 24.035C683.585 22.4605 684.826 20.5274 685.579 18.3892C687.316 12.9047 688.509 7.26274 689.142 1.5447L-nan -nanL689.142 1.5447C689.142 1.5447 689.142 0.596379 689.142 -0.398832C689.142 -1.47225 690.012 -2.3425 691.086 -2.3425H711.215C713.077 -2.3425 715.041 -1.81991 715.968 -0.204271C716.254 0.295127 716.513 0.81448 716.851 1.28053C720.064 5.70991 724.348 9.25759 729.31 11.5866C733.848 13.4939 738.5 15.1167 743.239 16.4456L-nan -nanL743.239 16.4456H747.282C747.609 16.4456 747.935 16.485 748.252 16.5647C754.161 18.0501 759.955 19.9589 765.59 22.2764C772.656 25.1496 778.577 30.2733 782.435 36.8534C788.174 47.2048 790.337 59.1604 788.59 70.8664C787.856 78.9946 785.139 86.8186 780.677 93.6523C776.215 100.486 770.145 106.121 762.999 110.062C753.44 115.377 743.457 119.884 733.153 123.537C731.043 124.285 728.816 124.639 726.578 124.639C724.95 124.639 723.325 124.823 721.75 125.238C716.025 126.747 710.428 128.713 705.015 131.118C699.665 133.26 694.983 136.791 691.452 141.347C687.922 145.902 685.671 151.317 684.931 157.033C684.299 162.955 684.299 168.927 684.931 174.849V178.088C685.042 184.219 685.912 190.312 687.523 196.229C692.463 214.432 704.013 230.14 719.916 240.283C729.166 246.202 738.797 251.505 748.746 256.156L755.872 259.719C765.461 264.387 774.668 269.803 783.407 275.916C783.959 276.227 784.502 276.555 785.034 276.897C792.63 281.785 794.744 291.409 794.744 300.443V346.325C794.744 346.977 794.216 347.505 793.564 347.505C793.281 347.505 793.006 347.403 792.792 347.217C785.816 341.179 780.086 335.768 774.984 330.985C764.568 320.265 754.831 308.905 745.83 296.972C738.546 287.303 730.533 278.206 721.859 269.761L716.029 264.578C709.55 258.424 702.423 251.945 695.945 244.819C689.124 237.197 683.35 228.7 678.776 219.552C672.252 206.693 667.667 192.938 665.171 178.736L-nan -nanL665.171 178.736C664.337 171.348 662.708 164.071 660.312 157.033C659.497 154.583 657.932 152.452 655.84 150.941C653.747 149.429 651.232 148.614 648.65 148.61C646.496 148.61 644.323 148.751 642.286 149.453C640.544 150.054 638.874 150.858 637.313 151.85C629.896 156.835 624.498 164.3 622.088 172.905C619.297 181.937 617.771 191.313 617.553 200.764V204.975C616.093 222.339 610.781 239.159 602.004 254.213C596.205 264.559 587.978 273.341 578.033 279.803C569.457 285.038 559.573 287.734 549.527 287.578C544.863 287.706 540.198 287.381 535.598 286.606C531.102 286.145 526.857 284.313 523.438 281.358C520.019 278.402 517.592 274.467 516.486 270.085C515.14 264.785 514.38 259.354 514.218 253.889C514.218 249.03 514.218 244.171 514.218 239.312C514.218 234.453 514.218 228.622 514.218 222.791C513.431 211.735 511.143 200.837 507.416 190.398C502.835 177.955 497.424 165.834 491.219 154.117C486.131 141.458 476.719 131.013 464.656 124.639C460.517 122.13 455.868 120.58 451.051 120.104C445.544 120.104 441.009 123.344 435.826 131.118C428.61 142.468 420.6 153.293 411.855 163.511C402.779 173.46 392.922 182.668 382.377 191.046C375.285 196.371 369.096 202.769 364.023 209.993C360.215 215.415 356.98 221.498 354.519 227.65C353.223 230.889 350.632 235.748 348.364 239.636C341.757 253.116 330.127 263.467 315.971 268.466L303.338 272.353L285.845 278.184C277.431 280.996 269.794 285.743 263.549 292.045C257.304 298.346 252.625 306.025 249.889 314.464C246.19 324.162 245.074 334.655 246.649 344.914C248.267 353.661 252.18 361.822 257.987 368.561C269.948 382.24 280.781 396.864 290.38 412.292C292.935 416.921 295.976 421.264 299.451 425.249C301.747 428.459 304.755 431.094 308.239 432.949C311.723 434.803 315.589 435.827 319.534 435.939L-nan -nanL319.534 435.939C331.931 435.118 343.533 429.549 351.928 420.39C359.469 412.477 365.506 403.256 369.744 393.18L-nan -nanL369.744 393.18C376.312 379.758 385.32 367.675 396.307 357.547L428.7 329.365L446.192 313.816C456.025 304.007 469.237 298.328 483.121 297.944H486.036C489.848 297.864 493.63 298.637 497.104 300.206C500.579 301.775 503.659 304.101 506.12 307.014C509.625 310.958 512.469 315.443 514.542 320.295L518.429 328.393C522.771 337.836 527.638 347.029 533.006 355.928C538.057 364.261 544.922 371.347 553.09 376.659C558.831 380.263 565.427 382.275 572.202 382.49C576.435 382.439 580.617 381.559 584.512 379.899C588.338 378.392 592.024 376.549 595.526 374.392L602.004 370.181C607.511 366.941 613.018 363.378 618.525 360.787C626.426 356.643 635.194 354.424 644.115 354.308C647.771 353.833 651.473 353.833 655.129 354.308C663.263 355.581 670.783 359.404 676.605 365.226C682.426 371.047 686.249 378.567 687.523 386.701C688.677 394.324 688.677 402.078 687.523 409.701C686.947 416.526 684.223 422.993 679.741 428.173C675.26 433.353 669.251 436.979 662.58 438.531C654.99 439.927 647.297 440.685 639.58 440.798H613.666C607.187 441.519 600.939 443.629 595.349 446.983C589.759 450.337 584.958 454.857 581.272 460.234C579.299 463.034 577.577 465.999 576.124 469.094C574.679 472.172 574.636 475.99 572.413 478.564C571.28 479.876 569.708 480.73 567.991 480.966H537.08C536.202 480.966 535.36 480.356 535.558 479.501C535.581 479.398 535.604 479.293 535.616 479.188C535.754 477.949 535.747 476.697 535.598 475.459C535.598 475.459 535.598 472.867 535.598 471.248C535.733 460.404 536.599 449.582 538.189 438.854C539.464 431.701 538.082 424.328 534.302 418.123C531.038 411.951 528.084 405.621 525.452 399.156C524.191 396.057 522.74 393.036 521.006 390.175L519.741 388.088C518.006 385.226 516.545 382.208 515.325 379.092C512.257 371.262 508.928 363.433 505.148 355.604C501.576 348.206 496.997 341.339 491.543 335.196C489.049 332.217 485.925 329.829 482.395 328.204C478.866 326.58 475.02 325.759 471.135 325.802L-nan -nanL471.135 325.802C464.054 326.239 457.225 328.59 451.375 332.604C442.305 338.435 433.883 345.238 425.461 351.716L419.954 355.928C411.731 362.2 404.234 369.371 397.602 377.307C390.487 387.256 384.816 398.162 380.758 409.701C373.767 426.87 363.786 442.663 351.28 456.347C345.286 462.461 340.913 469.971 338.553 478.192C338.399 478.73 338.464 479.302 338.536 479.857C338.676 480.928 337.612 481.614 336.532 481.614H298.183C297.273 481.614 296.535 480.876 296.535 479.966C296.535 479.77 296.501 479.576 296.432 479.393C293.721 472.224 289.207 465.896 283.348 461.01C281.617 459.566 279.917 458.078 278.441 456.375C277.118 454.849 275.633 453.473 274.032 452.242C267.907 447.526 262.012 442.518 256.367 437.235C246.82 427.197 238.15 416.359 230.453 404.841C223.89 394.594 215.554 385.6 205.834 378.279C200.997 374.763 196.545 370.745 192.553 366.293C184.778 357.871 177.652 349.125 170.525 340.379L163.723 331.957C157.121 325.184 151.455 317.558 146.878 309.281C139.771 291.804 136.246 273.078 136.512 254.213C136.266 241.537 137.792 228.889 141.047 216.636C143.344 207.738 144.648 198.612 144.934 189.426C144.531 174.504 140.412 159.919 132.949 146.991C129.607 141.399 124.857 136.781 119.173 133.598C113.489 130.415 107.07 128.778 100.556 128.85H97.3162C87.411 129.265 77.7484 132.042 69.134 136.949C61.0105 141.297 53.3107 146.394 46.1348 152.174C29.9078 164.85 10.7823 173.288 -9.51584 176.727C-9.7751 176.771 -10.0378 176.793 -10.3008 176.793C-12.945 176.793 -15.0886 174.649 -15.0886 172.005V154.571C-15.0886 148.953 -10.5346 144.399 -4.91705 144.399C-4.14216 144.399 -3.36927 144.313 -2.61659 144.129C2.87249 142.786 8.23617 140.981 13.4173 138.734C16.03 137.601 18.6792 136.55 21.377 135.638C27.9768 133.407 34.4103 130.706 40.6279 127.555L47.1066 124.639C62.5912 117.219 79.4995 113.24 96.6684 112.978C101.198 112.66 105.744 112.66 110.274 112.978C117.108 113.844 123.629 116.361 129.273 120.312C134.917 124.263 139.514 129.528 142.667 135.653C149.768 148.581 154.692 162.589 157.244 177.116C158.569 185.05 158.781 193.123 157.877 201.101C157.535 204.121 157.335 207.166 156.872 210.169C156.174 214.684 154.653 219.061 153.681 223.439C153.656 223.552 153.631 223.662 153.608 223.769C152.727 227.851 153.15 231.962 152.43 236.076C150.521 246.973 150.176 258.098 151.413 269.114C152.494 281.064 156.446 292.577 162.932 302.672C169.417 312.767 178.246 321.147 188.665 327.098C193.203 330.073 198.468 331.753 203.89 331.957C207.725 331.811 211.461 330.695 214.747 328.712C218.033 326.729 220.762 323.944 222.678 320.619C226.655 315.391 230.229 309.868 233.368 304.098L237.255 297.944C246.001 283.898 258.593 272.655 273.536 265.55L292.324 257.452L303.662 254.213C311.811 251.049 318.948 245.732 324.311 238.829C329.674 231.925 333.061 223.695 334.111 215.017C335.457 206.121 335.999 197.123 335.731 188.13C335.239 184.801 335.239 181.418 335.731 178.088C336.177 175.241 337.515 172.609 339.552 170.572C340.572 169.552 341.742 168.707 343.012 168.062C345.553 166.771 348.5 166.751 351.35 166.751H359.054C364.381 166.677 369.629 165.452 374.437 163.16C379.246 160.867 383.502 157.561 386.913 153.469C390.609 148.999 393.35 143.818 394.966 138.246C396.582 132.675 397.038 126.831 396.307 121.076C393.659 107.14 389.42 93.5535 383.673 80.5844L380.758 73.7818C378.266 66.4909 376.215 59.0583 374.615 51.5243C373.917 48.2381 372.899 45.0201 372.198 41.7345C371.479 38.3631 371.301 34.8879 371.68 31.44C372.243 26.3127 374.023 21.3942 376.871 17.0935C379.935 12.5823 383.523 8.45031 387.56 4.78403C389.711 2.84848 391.497 0.534823 393.561 -1.49216C394.947 -2.85225 396.524 -4.01294 398.25 -4.93396M409.211 -4.93396C402.009 -4.93396 394.626 -3.52923 389.24 1.25256C387.406 2.87996 385.585 4.5304 383.707 6.1054C380.012 9.20342 376.636 12.6672 373.631 16.4456C370.532 21.189 368.619 26.6086 368.055 32.2467C367.492 37.8848 368.293 43.5758 370.392 48.8389C373.631 59.2048 378.166 69.2467 382.377 79.2887C388.514 91.6612 393.189 104.706 396.307 118.161C397.332 123.573 397.185 129.142 395.877 134.492C394.568 139.843 392.128 144.851 388.721 149.179C385.313 153.507 381.018 157.055 376.124 159.583C371.23 162.111 365.851 163.561 360.35 163.835H352.497C349.531 163.835 346.471 163.876 343.814 165.194C342.375 165.909 341.051 166.855 339.901 168.005C337.692 170.214 336.234 173.062 335.731 176.145C335.235 179.582 335.235 183.073 335.731 186.511C336.536 195.346 336.536 204.237 335.731 213.073C334.743 221.563 331.44 229.619 326.185 236.36C320.929 243.101 313.922 248.268 305.929 251.297C295.887 255.832 285.521 259.396 275.803 264.255C260.622 271.256 247.795 282.508 238.875 296.648C234.547 304.36 229.788 311.822 224.622 318.999C222.823 322.189 220.246 324.872 217.13 326.798C214.015 328.723 210.463 329.829 206.806 330.013C201.64 329.764 196.624 328.203 192.229 325.478C181.635 319.985 172.516 312.027 165.638 302.275C158.761 292.522 154.327 281.261 152.709 269.437C151.177 256.447 151.945 243.289 154.976 230.565C156.92 222.467 158.864 214.369 160.159 206.27C161.622 196.716 161.622 186.995 160.159 177.44C157.512 162.733 152.595 148.526 145.582 135.329C142.339 129.213 137.729 123.927 132.111 119.882C127.726 116.724 122.818 114.389 117.627 112.976C114.709 112.182 111.669 112.006 108.644 112.006H99.2598C80.9005 111.917 62.7897 116.25 46.4587 124.639C36.6662 129.754 26.4846 134.087 16.009 137.597C9.43636 139.33 2.70956 140.415 -4.07485 140.836H-11.6573C-11.9987 140.836 -12.3377 140.766 -12.6719 140.696C-13.919 140.435 -14.7646 141.688 -14.7646 142.962V174.264C-14.7646 175.388 -14.0114 176.483 -12.911 176.256C-12.634 176.199 -12.3529 176.145 -12.07 176.145H-10.3819C-9.63391 176.145 -8.88677 176.081 -8.15107 175.946C12.0721 172.227 31.1256 163.748 47.4305 151.202C54.5444 145.65 62.0105 140.564 69.7819 135.977C78.3635 131.319 87.8869 128.662 97.6402 128.203H99.9077C106.388 127.893 112.83 129.359 118.538 132.441C124.247 135.524 129.006 140.107 132.301 145.695C140.086 158.929 144.014 174.077 143.639 189.426C143.644 199.274 142.337 209.078 139.751 218.58C136.519 230.175 134.992 242.178 135.216 254.213C135.208 273.391 139.179 292.363 146.878 309.929C150.957 318.21 156.073 325.939 162.103 332.928C171.497 344.59 180.567 356.575 191.257 367.589C195.372 372.016 199.812 376.131 204.538 379.899C214.08 387.06 222.302 395.829 228.833 405.813C236.478 417.459 245.267 428.311 255.072 438.207C262.482 445.11 270.268 451.599 278.395 457.643C285.176 462.515 290.379 469.263 293.366 477.049C293.539 477.499 293.732 477.942 293.991 478.348C295.182 480.218 297.438 480.966 299.656 480.966H331.761C334.537 480.966 337.633 480.092 338.323 477.403C340.642 469.126 344.983 461.556 350.956 455.375C363.556 441.457 373.64 425.454 380.758 408.081C384.512 396.475 390.088 385.541 397.278 375.688C403.827 367.675 411.334 360.495 419.63 354.308C429.672 346.21 440.038 338.111 452.023 330.985C457.684 327.123 464.293 324.883 471.135 324.506C474.831 324.564 478.473 325.401 481.822 326.965C485.172 328.528 488.153 330.781 490.571 333.576C495.944 339.664 500.516 346.413 504.176 353.66C510.331 365.97 514.866 379.251 519.725 391.884C522.928 400.081 526.606 408.085 530.739 415.855C534.312 421.781 535.581 428.814 534.302 435.615C532.665 446.337 531.799 457.163 531.711 468.008C531.711 470.924 531.711 473.515 531.711 476.107C531.711 478.567 534.63 479.022 537.09 479.022H563.317C566.366 479.022 569.761 478.284 570.907 475.459C572.761 470.669 575.152 466.105 578.033 461.854C581.737 456.55 586.555 452.121 592.151 448.876C597.747 445.63 603.984 443.647 610.426 443.066C615.285 443.066 620.468 443.066 625.651 443.066C636.512 443.001 647.347 442.025 658.045 440.15C665.045 438.735 671.382 435.045 676.069 429.655C680.755 424.266 683.53 417.478 683.959 410.348C684.931 402.604 684.931 394.769 683.959 387.025C682.939 378.557 679.25 370.633 673.426 364.402C667.602 358.17 659.946 353.954 651.566 352.364C647.801 351.907 643.994 351.907 640.228 352.364C631.095 352.439 622.108 354.658 613.99 358.843C606.215 362.73 598.765 367.913 590.99 372.448C587.488 374.604 583.803 376.447 579.977 377.955C576.353 379.739 572.354 380.627 568.315 380.547C561.754 380.264 555.384 378.253 549.851 374.716C541.895 369.628 535.239 362.75 530.415 354.632C523.496 343.166 517.329 331.264 511.951 318.999C509.653 314.095 506.712 309.52 503.205 305.394C500.661 302.39 497.481 299.989 493.896 298.364C490.31 296.739 486.409 295.932 482.473 296H479.233C464.987 296.323 451.413 302.124 441.333 312.197L392.743 355.928C381.752 366.177 372.747 378.366 366.181 391.884C361.793 402.054 355.653 411.373 348.041 419.419C340.171 428.148 329.296 433.586 317.591 434.643L-nan -nanL317.591 434.643C313.829 434.47 310.156 433.448 306.846 431.652C303.536 429.857 300.675 427.336 298.479 424.278C295.093 420.412 292.159 416.173 289.733 411.644C280.065 396.263 269.236 381.643 257.339 367.913C251.7 361.23 247.903 353.191 246.325 344.59C244.805 334.543 245.921 324.273 249.565 314.788C252.634 306.411 257.636 298.877 264.165 292.798C270.695 286.719 278.567 282.267 287.141 279.803C297.183 275.916 307.225 273.325 317.267 270.085C331.449 264.783 343.048 254.228 349.66 240.607C353.547 233.805 356.463 226.354 360.026 219.228C365.71 208.647 373.677 199.463 383.349 192.341C393.949 183.909 403.81 174.59 412.827 164.483C421.651 154.249 429.768 143.426 437.122 132.09C441.981 124.639 446.192 121.724 451.051 121.724C455.771 122.181 460.319 123.734 464.333 126.259C475.179 132.239 483.811 141.553 488.951 152.821C495.198 164.586 500.505 176.826 504.824 189.426C508.551 199.865 510.84 210.763 511.627 221.819C511.627 232.185 511.627 242.227 511.627 254.213C511.83 259.803 512.7 265.349 514.218 270.733C515.653 275.295 518.493 279.287 522.333 282.138C526.173 284.989 530.816 286.553 535.598 286.606C540.235 286.925 544.889 286.925 549.527 286.606C559.771 286.712 569.85 284.024 578.681 278.832C588.672 272.628 597.096 264.203 603.3 254.213C611.969 239.274 617.069 222.534 618.201 205.299C618.58 194.328 620.321 183.447 623.384 172.905C625.554 164.535 630.747 157.265 637.961 152.498C639.531 151.591 641.191 150.857 642.913 150.307C644.76 149.717 646.711 149.582 648.65 149.582C650.991 149.564 653.273 150.315 655.146 151.72C657.018 153.124 658.378 155.105 659.016 157.357C661.62 163.886 663.257 170.762 663.875 177.764C665.884 191.525 669.81 204.936 675.537 217.608C680.3 226.921 686.174 235.622 693.029 243.523C701.452 252.269 710.198 260.367 718.944 268.466C727.609 276.918 735.622 286.014 742.915 295.676C752.309 307.338 761.703 318.999 772.069 328.069L790.035 344.432C790.151 344.537 790.125 344.494 790.229 344.612C791.612 346.193 793.449 345.154 793.449 343.053V299.811C793.449 291.175 791.515 282.132 784.756 276.755C783.804 275.997 782.813 275.285 781.787 274.62C773.159 268.244 763.939 262.712 754.253 258.1C741.839 252.569 729.825 246.183 718.296 238.988C702.521 229.002 690.986 213.545 685.903 195.581C684.214 189.791 683.342 183.795 683.311 177.764C682.676 170.868 682.676 163.929 683.311 157.033C684.15 151.561 686.377 146.395 689.779 142.029C693.182 137.662 697.646 134.24 702.747 132.09C711.519 128.623 720.643 126.125 729.958 124.639C742.181 121.242 754.015 116.573 765.266 110.71C772.547 106.699 778.74 100.975 783.312 94.0324C787.884 87.0903 790.696 79.1391 791.505 70.8664C793.254 58.8466 791.097 46.5827 785.35 35.8816C781.205 29.0965 774.945 23.8612 767.534 20.9807C760.314 17.9342 752.833 15.5489 745.183 13.8542C740.01 12.6913 734.923 11.1761 729.958 9.3191C724.95 6.95491 720.691 3.2562 717.648 -1.3707C715.899 -3.95873 712.701 -4.93396 709.577 -4.93396L695.065 -4.93396C690.934 -4.93396 686.463 -2.90898 686.551 1.22077C686.016 6.32159 684.818 11.3309 682.987 16.1217C682.444 18.1934 681.34 20.0752 679.797 21.5609C678.254 23.0466 676.332 24.0787 674.241 24.544C668.903 25.749 663.493 26.6145 658.045 27.1354L633.102 29.403H624.679C611.595 29.8133 598.811 25.4366 588.723 17.0935C583.209 12.2498 578.65 6.42121 575.278 -0.0906867C574.95 -0.72402 574.712 -1.40568 574.404 -2.04892C573.308 -4.33612 570.528 -4.93396 567.992 -4.93396L544.668 -4.93396C541.529 -4.93396 545.168 0.808601 546.45 3.67454C548.92 9.19875 552.133 14.3682 556.006 19.0371C567.531 33.2068 582.961 43.6817 600.384 49.1629C604.943 50.3143 609.614 50.966 614.314 51.1065H628.243C632.448 50.784 636.671 50.784 640.876 51.1065C643.956 51.2672 646.973 52.0371 649.753 53.3716C652.533 54.706 655.021 56.5786 657.073 58.8809C658.639 60.9293 659.844 63.2298 660.636 65.6835C663.31 74.7895 663.163 84.4919 660.214 93.5126C657.265 102.533 651.652 110.449 644.115 116.217C637.637 120.428 631.158 124.963 625.003 129.822C611.84 140.946 603.199 156.5 600.708 173.553C599.258 181.567 598.607 189.706 598.765 197.848C598.894 208.813 597.365 219.734 594.23 230.242C590.881 241.372 584.35 251.281 575.442 258.748C570.052 262.938 563.477 265.319 556.653 265.55C552.58 265.55 548.388 265.074 545.023 262.778C543.607 261.811 542.295 260.69 541.113 259.431C538.52 256.668 536.628 253.323 535.598 249.678C533.129 243.264 531.813 236.465 531.711 229.594C530.526 209.263 528.037 189.03 524.26 169.018C522.541 159.382 521.459 149.643 521.021 139.864C519.444 124.744 513.22 110.485 503.205 99.0486C498.345 93.2178 492.839 88.3588 487.98 82.8519C481.059 75.6465 476.242 66.6847 474.051 56.9373C471.783 48.515 470.163 39.7688 467.896 31.3466C465.774 23.4655 460.816 10.7626 457.002 0.934733C456.498 -0.364173 456.491 -1.82328 456.05 -3.14504C455.62 -4.43696 454.175 -4.93396 452.813 -4.93396L409.211 -4.93396Z" fill="white" fill-opacity="0.2"/>
<path d="M-12.1702 289.198L7.26582 292.113C28.7194 295.994 48.0472 307.499 61.6866 324.507C65.4395 329.003 68.6976 333.89 71.4046 339.084C78.5996 354.205 82.6758 370.62 83.3901 387.35L-nan -nanL83.3901 387.35C83.7641 397.743 85.285 408.064 87.9252 418.123C90.3039 428.162 95.7362 437.215 103.474 444.038C108.664 448.108 114.07 451.893 119.671 455.376L125.825 459.587C131.91 463.582 137.306 468.531 141.81 474.238C142.194 474.725 142.994 477.08 142.994 477.701C142.994 478.057 142.705 478.375 142.349 478.375H114.488H108.657H104.77C103.395 478.183 102.007 478.108 100.623 478.15C98.8484 478.204 97.0629 478.316 95.298 478.505C88.8522 479.197 82.5593 481.614 76.0766 481.614H-4.88167C-10.5171 481.614 -15.0856 477.046 -15.0856 471.41V463.15C-15.0856 462.077 -14.2154 461.207 -13.142 461.207C-10.6687 461.525 -8.16477 461.525 -5.6915 461.207H6.61796H19.4624C22.9848 461.207 26.5071 460.902 29.9353 460.093C36.6768 458.502 43.2858 456.383 49.7011 453.756C53.2905 452.45 56.4852 450.245 58.9804 447.353C61.4756 444.461 63.188 440.978 63.9541 437.236C65.9172 427.861 66.8943 418.307 66.8695 408.729C67.5175 399.455 67.5175 390.146 66.8695 380.871C66.4365 367.68 63.1194 354.743 57.1515 342.971C50.5908 329.165 39.0028 318.389 24.7582 312.845C17.6577 310.502 10.2052 309.406 2.73076 309.606H-11.8462C-13.6353 309.606 -15.0856 308.156 -15.0856 306.367V289.846M-14.0056 288.946C-14.6705 289.5 -15.5901 289.583 -16.4553 289.563C-17.4117 289.542 -18.001 290.472 -18.001 291.429V309.239C-18.001 310.246 -17.388 311.226 -16.3813 311.226C-15.2838 311.226 -14.1966 310.902 -13.0991 310.902H3.05469C10.317 310.704 17.5564 311.801 24.4343 314.141C38.6706 319.354 50.2988 329.936 56.8276 343.619C62.9906 355.084 66.3226 367.857 66.5456 380.871C67.1935 390.146 67.1935 399.455 66.5456 408.729C66.5387 418.198 65.5618 427.642 63.6302 436.912C63.0451 440.468 61.4983 443.797 59.1573 446.538C56.8163 449.278 53.7703 451.326 50.3489 452.46C41.9195 455.044 33.227 456.674 24.4343 457.319H6.29402H-2.7761C-5.25003 457.628 -7.75265 457.628 -10.2266 457.319L-nan -nanL-10.2266 457.319C-10.862 457.275 -11.4976 457.402 -12.0674 457.687C-13.1763 458.241 -13.4659 459.599 -13.4659 460.839V474.508C-13.4659 477.234 -15.5439 480.967 -12.818 480.967H76.7489C83.002 480.967 89.0635 478.638 95.2717 477.89C97.0526 477.675 98.8555 477.528 100.649 477.48C101.917 477.446 103.188 477.528 104.446 477.727C106.066 478.076 107.668 478.5 109.247 478.999C112.769 480.112 116.394 480.967 120.088 480.967H143.462C145.35 480.967 146.881 479.286 146.881 477.398C146.881 476.673 146.653 476.114 146.215 475.536C141.617 469.453 136.041 464.173 129.713 459.911C121.938 454.728 114.164 450.193 107.037 444.362C99.6024 437.663 94.4015 428.844 92.1363 419.095C89.46 408.483 87.8325 397.633 87.2773 386.702C86.5986 369.967 82.5207 353.545 75.2918 338.436C72.5146 333.108 69.1461 328.109 65.2499 323.535C51.33 306.371 31.6415 294.857 9.85729 291.142L-8.97906 287.085C-10.3799 286.783 -11.8416 287.143 -12.9424 288.06L-14.0056 288.946Z" fill="white" fill-opacity="0.2"/>
<path d="M158.2 -4.93396H166.979C168.75 -4.93396 170.185 -4.10885 170.185 -2.33811C170.185 -2.10081 170.211 -1.25379 170.264 -1.02248C172.633 9.31793 176.537 19.246 181.847 28.4312C184.762 33.6141 187.678 38.4731 190.269 43.656L203.874 68.5989C208.734 78.7387 215.186 88.0346 222.986 96.1332C227.204 100.471 232.237 103.935 237.795 106.325C243.354 108.715 249.329 109.985 255.38 110.062H258.295C262.88 109.683 267.331 108.331 271.353 106.096C275.374 103.862 278.874 100.797 281.618 97.105C288.083 87.4166 292.086 76.2973 293.28 64.7117C293.28 56.6133 294.9 48.1911 295.547 40.4167V37.5013C295.547 25.1918 298.139 12.8824 299.759 1.22077V-1.04676C299.56 -2.52186 300.869 -3.63823 302.358 -3.63823H311.448C319.945 -3.63823 326.316 4.25491 322.906 12.0369C322.447 13.0841 321.966 14.122 321.462 15.1499C315.065 29.9097 310.811 45.5083 308.829 61.4723C308.829 63.1972 308.696 64.9203 308.399 66.6195C306.629 76.7496 304.065 86.7262 300.73 96.4571C299.142 102.862 296.155 108.836 291.984 113.95C288.591 117.782 284.391 120.815 279.687 122.831C274.982 124.848 269.889 125.797 264.774 125.611H261.424C258.264 125.611 255.098 125.387 252.026 124.65C243.691 122.649 235.749 119.228 228.554 114.525C220.032 108.955 212.737 101.705 207.114 93.2178C200.935 84.5089 195.309 75.4209 190.269 66.0074L-nan -nanL190.269 66.0074L184.438 56.2894C177.941 45.8649 172.099 35.0463 166.946 23.8961C162.55 14.7992 159.599 5.07229 158.2 -4.93396M168.001 -4.93396C162.775 -4.93396 158.678 -0.373101 159.803 4.73103C161.205 11.0935 163.271 17.3004 165.974 23.2482C172.491 38.0165 179.846 52.401 188.002 66.3313C193.25 76.1446 199.204 85.5635 205.818 94.5135C211.563 103.095 219.016 110.401 227.71 115.974C235.171 120.757 243.409 124.176 252.039 126.084C254.893 126.716 257.82 126.907 260.742 126.907H264.45C269.734 127.063 274.99 126.072 279.855 124.003C284.72 121.934 289.079 118.836 292.632 114.921C296.907 109.708 300.002 103.629 301.702 97.105C305.417 85.1085 308.339 72.8806 310.448 60.5005C313.295 44.913 318.196 29.772 325.025 15.4738C330.143 5.42868 321.51 -4.93396 310.236 -4.93396L305.81 -4.93396C302.966 -4.93396 299.78 -3.86954 299.435 -1.04676C297.266 11.6081 295.753 24.3664 294.9 37.1774C294.9 45.1625 294.9 52.929 293.462 60.8361C292.831 64.3041 292.257 67.7887 291.729 71.2738C290.256 80.9936 286.586 90.2754 280.97 98.4007C278.338 101.978 274.931 104.913 271.005 106.989C267.078 109.064 262.733 110.226 258.295 110.386H255.704C244.276 109.933 233.473 105.054 225.578 96.7811C217.841 88.823 211.49 79.6257 206.79 69.5707C199.663 55.9655 191.889 42.6842 184.762 29.403C179.839 20.9043 176.127 11.7641 173.731 2.24805C173.289 0.493182 173.275 -1.42202 172.377 -2.99322C172.342 -3.05494 172.305 -3.11591 172.268 -3.17608C171.4 -4.56669 169.64 -4.93396 168.001 -4.93396Z" fill="white" fill-opacity="0.2"/>
<path d="M33.8253 -1.3707C35.6706 -3.626 38.4307 -4.93396 41.3447 -4.93396H61.3097C68.0918 -4.93396 73.0861 1.45917 70.4298 7.69943C63.3212 22.8113 52.0934 35.611 38.0365 44.6278C30.1949 50.2545 20.8012 53.3103 11.15 53.374C8.35177 53.6952 5.52598 53.6952 2.72775 53.374L-9.89607 51.4804C-10.1181 51.4471 -10.3423 51.4304 -10.5668 51.4304C-13.0641 51.4304 -15.0886 49.4059 -15.0886 46.9087V10.4311C-15.0886 8.80741 -13.9827 7.2445 -12.3904 7.56249C-12.0288 7.63471 -11.6618 7.69943 -11.293 7.69943H14.3893C21.7536 7.13335 28.6611 3.90985 33.8253 -1.3707ZM40.1042 -4.93396C37.9111 -4.93396 35.767 -4.28478 33.9421 -3.06823C33.2189 -2.58607 32.5619 -2.01337 31.9409 -1.40517C27.2283 3.21025 21.0017 5.99135 14.3893 6.4037H8.55854L-6.01845 5.75583H-10.5535C-13.5818 5.46952 -15.0886 8.83708 -15.0886 11.8789V32.3742C-15.0886 43.7445 -6.86823 53.4483 4.34741 55.3176C7.14565 55.6388 9.97144 55.6388 12.7697 55.3176C22.6855 55.341 32.3434 52.1596 40.304 46.2475C54.4304 37.0287 65.6605 24.0017 72.6973 8.67123C75.0203 1.74549 69.4908 -4.93396 62.1858 -4.93396L40.1042 -4.93396Z" fill="white" fill-opacity="0.2"/>
<path d="M460.108 5.4319C458.501 0.290546 462.342 -4.93396 467.729 -4.93396H481.299C482.889 -4.93396 484.561 -4.45713 485.315 -3.05766C485.704 -2.33443 485.945 -1.54056 486.023 -0.722831L-nan -nanL486.023 -0.722831C488.72 6.27911 492.796 12.6681 498.008 18.0653C498.758 18.9975 499.691 19.7659 500.75 20.3231C501.808 20.8802 502.97 21.2143 504.163 21.3046C505.442 21.3046 506.758 21.0767 507.728 20.2423C508.302 19.7482 508.8 19.167 509.203 18.5165C509.949 17.3116 510.335 15.919 510.318 14.502L-nan -nanL510.318 14.502C510.63 10.8374 510.63 7.15289 510.318 3.4883C509.99 1.6673 509.99 -0.197563 510.318 -2.01856L-nan -nanL510.318 -2.01856C510.318 -2.01856 510.318 -2.73419 510.318 -3.47625C510.318 -4.28132 510.97 -4.93396 511.775 -4.93396H527.865C535.695 -4.93396 542.347 0.408509 546.124 7.26704C547.062 8.9701 548.085 10.6281 549.19 12.2345C555.994 21.9756 564.699 30.2396 574.78 36.5295C584.425 43.2474 595.528 47.5775 607.174 49.1629H632.44C637.295 48.9653 642.14 49.7362 646.694 51.4304C650.188 52.3864 653.331 54.3322 655.745 57.0334C658.159 59.7346 659.74 63.076 660.299 66.6553C660.978 72.3579 660.978 78.1211 660.299 83.8237C660.01 89.5731 658.469 95.1901 655.784 100.282C654.1 103.474 651.991 106.412 649.523 109.018C646.597 112.108 643.477 115.084 641.003 118.547C638.136 122.561 634.568 126.065 630.497 128.85C615.676 139.69 605.587 155.809 602.315 173.877C600.917 182.447 600.159 191.109 600.047 199.792C600.047 202.707 600.047 205.623 600.047 208.862C599.697 220.709 596.71 232.329 591.301 242.875C588.755 249.122 584.7 254.64 579.499 258.936C575.3 262.405 570.46 264.99 565.269 266.552C562.794 267.297 560.197 267.494 557.612 267.494C552.484 267.064 547.615 265.059 543.671 261.754C539.728 258.448 536.903 254.004 535.584 249.03C532.502 240.242 530.542 231.099 529.754 221.819V217.608C529.48 209.472 528.723 201.359 527.486 193.313C524.571 175.497 521.331 155.089 519.388 135.005C518.148 120.021 511.734 105.935 501.248 95.1614L496.065 89.9785L487.318 80.9083C483.438 76.5167 480.367 71.4716 478.248 66.0074C475.114 58.4562 472.621 50.6542 470.798 42.6842C467.961 30.0698 464.392 17.6313 460.108 5.4319ZM481.118 -4.93396C468.574 -4.93396 459.968 7.75729 463.884 19.6743C466.416 27.381 468.722 35.1623 470.798 43.0081C472.357 51.0429 474.523 58.9479 477.277 66.6553C479.341 72.2433 482.416 77.4041 486.347 81.8801L500.276 96.1332C510.622 106.578 516.934 120.349 518.092 135.005C520.036 154.765 522.951 174.201 526.19 193.313C527.81 203.031 528.134 213.073 528.782 222.791C529.209 231.773 530.621 240.68 532.993 249.354C534.585 254.658 537.835 259.313 542.265 262.636C546.696 265.958 552.074 267.775 557.612 267.818C560.412 267.818 563.224 267.586 565.892 266.738C571.127 265.072 576.012 262.424 580.278 258.921C585.632 254.525 589.855 248.912 592.597 242.551C597.811 231.631 600.47 219.667 600.371 207.566C600.429 195.859 601.294 184.169 602.963 172.581C604.791 163.683 608.366 155.237 613.482 147.73C618.598 140.223 625.152 133.806 632.764 128.85L650.257 116.217C655.12 112.315 659.063 107.39 661.807 101.791C664.55 96.1922 666.026 90.0576 666.13 83.8237C666.777 78.0109 666.777 72.1442 666.13 66.3313C665.555 62.4999 663.867 58.9218 661.275 56.0421C658.684 53.1624 655.303 51.1081 651.553 50.1347C646.86 48.5464 641.929 47.7793 636.976 47.8671H612.033C600.383 46.5049 589.254 42.2755 579.639 35.5577C569.578 29.4944 560.957 21.3149 554.373 11.5866C546.775 2.86292 536.947 -4.93396 525.378 -4.93396L512.261 -4.93396C510.642 -4.93396 512.261 -2.01856 512.261 -0.398898C512.585 4.99515 512.585 10.4037 512.261 15.7978C512.261 17.962 512.261 20.3523 510.186 21.6476C509.274 22.2167 508.153 22.2764 507.078 22.2764C506.056 22.1923 505.063 21.8883 504.168 21.3852C503.274 20.882 502.498 20.1915 501.895 19.361C496.77 14.0182 492.704 7.75308 489.91 0.896835C489.445 -0.454521 488.679 -1.68212 487.668 -2.69253C487.359 -3.00158 487.03 -3.28782 486.683 -3.54957C485.118 -4.73027 483.078 -4.93396 481.118 -4.93396Z" fill="white" fill-opacity="0.2"/>
<path d="M470.811 325.477C476.064 325.5 481.172 327.202 485.388 330.336C489.91 334.039 493.842 338.408 497.05 343.293C503.741 354.433 509.318 366.203 513.7 378.434C514.047 379.401 514.218 380.422 514.218 381.45C514.218 382.565 514.421 383.671 514.824 384.711C518.909 395.234 523.573 405.522 528.795 415.53C532.265 421.377 533.421 428.31 532.035 434.966C530.478 445.693 529.72 456.52 529.767 467.359C529.719 467.783 529.685 468.208 529.665 468.634C529.609 469.898 529.767 472.836 529.767 474.101C529.767 474.981 529.054 476.106 528.174 476.106H498.388C496.275 476.106 494.148 475.385 492.932 473.658C492.701 473.33 492.483 472.993 492.28 472.647C491.994 472.161 491.867 471.6 491.867 471.036C491.867 470.329 491.655 469.638 491.268 469.046C487.597 463.43 484.539 457.435 482.149 451.163C475.745 431.765 473.536 411.227 475.67 390.911V387.996C476.317 381.858 476.317 375.669 475.67 369.532C475.272 365.406 473.367 361.572 470.319 358.763C467.271 355.954 463.294 354.367 459.15 354.307C457.425 354.307 455.7 354.43 454.007 354.761C444.426 356.633 435.285 360.325 427.08 365.644C421.255 369.259 416.012 373.737 411.532 378.926C403.942 387.872 398.412 398.378 395.335 409.699C389.144 430.142 384.062 450.904 380.11 471.895L-nan -nanL380.11 471.895C380.11 472.609 380.11 473.192 380.11 473.677C380.11 474.66 379.312 475.458 378.328 475.458H354.941C345.954 475.458 339.123 467.032 344.154 459.585C347.586 454.758 351.262 450.109 355.167 445.656C361.824 438.142 367.586 429.881 372.336 421.037C375.854 414.641 378.991 408.043 381.73 401.277C383.402 396.841 385.349 392.513 387.561 388.32C392.931 377.352 400.417 367.554 409.588 359.49C421.689 348.624 434.573 338.663 448.136 329.688C452.841 326.11 458.25 323.57 464.009 322.237C466.482 321.922 468.986 321.922 471.459 322.237M471.459 323.86C471.459 322.964 470.733 322.237 469.836 322.237H464.435C463.936 322.237 463.439 322.288 462.953 322.402C457.348 323.721 452.078 326.202 447.488 329.688C433.967 338.98 420.988 349.039 408.616 359.814C399.332 367.978 391.738 377.882 386.265 388.968C381.082 399.981 376.871 411.319 371.04 421.361C366.326 430.048 360.678 438.195 354.195 445.656C350.249 450.075 346.572 454.726 343.182 459.585C337.401 467.944 345.243 477.401 355.406 477.401H377.843C380.11 477.401 380.11 474.486 380.434 472.542C384.537 450.947 389.72 430.215 395.983 410.347C399.027 399.176 404.44 388.79 411.856 379.897C416.23 374.817 421.366 370.445 427.08 366.94C435.07 361.726 443.998 358.135 453.356 356.363C455.051 356.042 456.777 355.926 458.502 355.926C462.355 355.993 466.045 357.488 468.858 360.122C471.671 362.755 473.406 366.34 473.727 370.179C474.698 377.164 474.698 384.25 473.727 391.235C471.646 411.765 473.853 432.502 480.205 452.135C482.532 458.257 485.522 464.105 489.119 469.573C489.857 470.694 490.463 471.9 491.117 473.071C493.071 476.562 497.28 477.725 501.281 477.725H525.556C531.102 477.725 535.598 473.229 535.598 467.683C535.561 458.175 536.222 448.679 537.575 439.27C537.957 436.616 538.296 433.935 538.009 431.269C537.429 425.864 535.496 420.67 532.359 416.178C526.573 405.729 521.487 394.907 517.134 383.785C512.444 369.872 506.253 356.512 498.67 343.941C495.562 338.787 491.493 334.278 486.684 330.66C482.738 327.648 478.003 325.872 473.074 325.535C472.183 325.474 471.459 324.754 471.459 323.86Z" fill="white" fill-opacity="0.2"/>
<path d="M459.168 358.842C460.915 358.823 462.647 359.158 464.262 359.826C465.876 360.494 467.339 361.481 468.562 362.729C471.074 365.628 472.902 369.054 473.911 372.755C474.479 374.839 474.78 376.979 474.81 379.125C474.858 382.457 474.392 385.785 474.392 389.118C474.392 390.962 474.392 392.764 474.392 394.475V407.432C474.213 415.897 474.864 424.36 476.336 432.699C477.55 445.29 481.532 457.458 487.998 468.331L489.941 470.923C492.583 474.878 489.361 479.669 484.604 479.669H426.665C402.135 479.669 383.279 457.538 390.17 433.994L392.437 425.572C395.462 407.282 404.326 390.463 417.704 377.63C428.633 367.32 442.617 360.84 457.548 359.166H459.168M459.493 358.353C459.296 358.844 458.821 359.166 458.292 359.166H457.548C442.31 360.995 428.032 367.568 416.732 377.954C403.28 391.038 394.321 408.049 391.142 426.544C385.975 444.449 381.758 462.615 378.508 480.965L-nan -nanL378.508 480.965H480.905C487.957 480.965 492.743 473.876 488.458 468.275C488.155 467.88 487.872 467.467 487.628 467.033C481.621 456.363 477.886 444.563 476.66 432.375C475.197 424.144 474.546 415.79 474.716 407.432C474.716 399.658 474.716 391.883 476.336 384.109C477.066 380.16 476.892 376.098 475.826 372.226C474.76 368.355 472.83 364.775 470.181 361.757C468.816 360.407 467.197 359.34 465.418 358.618C463.908 358.004 462.307 357.649 460.684 357.565C460.159 357.538 459.688 357.865 459.493 358.353Z" fill="white" fill-opacity="0.2"/>
<path d="M10.1782 327.746C12.5418 327.409 14.9412 327.409 17.3047 327.746C25.3436 329.243 32.7408 333.139 38.5228 338.921C44.3049 344.703 48.2009 352.1 49.6981 360.139C53.229 373.405 53.229 387.364 49.6981 400.631C48.2944 407.875 44.8745 414.576 39.8317 419.962C34.7888 425.349 28.3278 429.203 21.1919 431.08C10.5534 433.369 -0.32513 434.348 -11.2014 433.996C-13.3482 433.996 -15.0886 432.255 -15.0886 430.109V411.968C-15.0886 410.537 -13.9283 409.377 -12.4971 409.377H-6.01845C-2.57067 409.699 0.899634 409.699 4.34741 409.377C13.0482 407.941 20.8858 403.272 26.2915 396.305C31.6972 389.337 34.2723 380.585 33.5014 371.801C33.648 366.301 31.7901 360.935 28.2739 356.704C25.5215 353.392 21.9 350.951 17.8504 349.634C15.5949 348.9 13.1979 348.801 10.8261 348.801H5.96708C0.302238 349.564 -5.2681 350.909 -10.6552 352.817C-11.017 352.945 -11.3977 353.013 -11.7815 353.013C-13.608 353.013 -15.0886 351.532 -15.0886 349.705V338.814C-15.0886 334.311 -11.4384 330.661 -6.93578 330.661C-6.32615 330.661 -5.71889 330.591 -5.12264 330.464C-0.626481 329.506 3.95974 329.029 8.55854 329.041M9.22499 328.819C8.78557 328.966 8.32042 329.018 7.85898 328.977C3.13364 328.565 -1.61998 328.587 -6.34238 329.041C-11.2739 329.407 -15.0886 333.514 -15.0886 338.459V352.643C-15.0886 353.272 -14.7465 353.921 -14.1168 353.921C-13.4501 353.921 -12.794 353.66 -12.1273 353.66H-11.5946C-11.1183 353.66 -10.6441 353.6 -10.1811 353.489C-4.89041 352.21 0.523813 351.507 5.96708 351.393H10.8261C13.1968 351.393 15.5956 351.515 17.8276 352.314C21.5549 353.648 24.8692 355.985 27.3873 359.099C29.7323 361.998 31.2749 365.432 31.9005 369.059C32.3958 371.932 32.4905 374.874 32.469 377.788C32.4483 380.582 32.0663 383.367 31.3279 386.074C30.2043 390.193 28.2776 394.049 25.6586 397.421C23.0395 400.792 19.7798 403.613 16.0669 405.72C12.3539 407.828 8.26102 409.181 4.02348 409.701H-10.5535C-13.8053 409.701 -15.0886 413.092 -15.0886 416.344V435.292C-15.0886 436.723 -13.9283 437.883 -12.4971 437.883C-1.61975 438.276 9.26374 437.296 19.8962 434.968C27.3986 432.963 34.1664 428.844 39.3929 423.101C44.6194 417.357 48.0841 410.232 49.3741 402.574C52.9428 388.984 52.9428 374.702 49.3741 361.111C47.6773 353.161 43.7157 345.872 37.9677 340.124C32.2196 334.376 24.9307 330.414 16.9808 328.718C14.614 328.413 12.2191 328.399 9.84981 328.678C9.63719 328.703 9.42808 328.752 9.22499 328.819Z" fill="white" fill-opacity="0.2"/>
<path d="M11.15 349.449C15.3695 349.629 19.4249 351.134 22.7397 353.751C26.0545 356.368 28.46 359.963 29.6142 364.026C31.0445 368.708 31.4665 373.641 30.8523 378.499C30.2381 383.356 28.6017 388.029 26.0509 392.208C23.8903 395.959 20.9999 399.239 17.5503 401.854C14.1008 404.469 10.1622 406.366 5.96708 407.433C1.02078 408.074 -3.98754 408.074 -8.93385 407.433C-12.333 407.433 -15.0886 404.677 -15.0886 401.278V357.367C-15.0886 355.856 -13.8639 354.632 -12.3532 354.632C-12.02 354.632 -11.6899 354.57 -11.3776 354.454C-4.88449 352.035 1.95577 350.673 8.88248 350.421M10.722 348.748C9.54898 349.815 7.9855 350.333 6.40233 350.252C0.738142 349.962 -4.94298 350.323 -10.5294 351.329C-10.761 351.371 -10.9958 351.392 -11.2312 351.392C-13.3616 351.392 -15.0886 353.119 -15.0886 355.25V400.306C-15.0886 404.421 -11.7529 407.757 -7.63811 407.757C-2.69181 408.398 2.31651 408.398 7.26281 407.757C11.8892 406.49 16.2154 404.311 19.9868 401.347C23.7582 398.384 26.8984 394.695 29.2227 390.5C31.547 386.304 33.0083 381.685 33.5206 376.916C34.0329 372.147 33.5858 367.324 32.2057 362.73C30.977 358.383 28.403 354.537 24.8531 351.744C21.9158 349.432 18.4352 347.94 14.7644 347.396C13.2873 347.178 11.8268 347.744 10.722 348.748Z" fill="white" fill-opacity="0.2"/>
<path d="M189.642 133.06H190.417C192.265 133.06 194.107 133.33 195.843 133.963C201.44 136.002 206.759 138.746 211.67 142.131L-nan -nanL211.67 142.131C223.007 149.581 234.669 157.031 244.063 164.482C250.45 168.349 256.365 172.937 261.695 178.152C263.806 180.217 266.046 182.16 268.09 184.293C270.138 186.429 271.865 188.862 273.211 191.515C275.227 195.493 276.336 199.868 276.456 204.326C276.391 207.675 275.605 210.971 274.152 213.99C272.698 217.008 270.612 219.678 268.034 221.818C262.293 227.817 255.62 232.849 248.274 236.719L244.063 238.987C235.317 243.846 226.571 249.029 218.148 254.859C215.776 256.526 213.328 258.083 210.813 259.523C209.036 260.54 207.076 261.315 205.03 261.217C203.837 261.161 202.628 261.093 201.468 260.81C198.035 259.972 196.076 256.594 195.797 251.296C195.514 247.306 195.514 243.301 195.797 239.31C198.055 227.927 198.359 216.256 196.709 204.796C196.196 201.236 195.933 197.611 195.046 194.126C193.989 189.98 192.069 185.819 190.938 181.974C189.318 176.467 187.051 168.693 185.755 162.214C183.878 155.358 183.005 148.266 183.164 141.159C183.164 135.004 185.755 131.765 190.29 131.765M189.642 132.089C189.804 132.008 189.745 131.777 189.565 131.789C184.835 132.112 182.176 135.667 181.868 142.454C181.768 149.665 182.64 156.856 184.459 163.834C187.051 176.467 191.586 188.453 194.501 201.086C197.093 214.132 197.093 227.56 194.501 240.606C194.181 244.595 194.181 248.603 194.501 252.592C194.501 258.507 196.956 262.19 200.754 263.272C202.367 263.731 204.073 263.86 205.75 263.892C207.758 263.93 209.676 263.176 211.434 262.203C213.991 260.788 216.451 259.2 218.796 257.451C228.514 250.648 238.88 245.141 249.246 239.31C256.797 234.669 263.483 228.75 269.006 221.818C273.624 217.279 276.295 211.123 276.456 204.65C276.567 200.355 275.822 196.081 274.264 192.077C272.707 188.073 270.369 184.418 267.386 181.326C261.238 174.833 254.269 169.17 246.654 164.482L211.67 141.807C205.897 137.874 199.625 134.731 193.02 132.46C192.928 132.429 192.832 132.413 192.735 132.413H189.719C189.538 132.413 189.481 132.169 189.642 132.089Z" fill="white" fill-opacity="0.2"/>
<path d="M429.99 409.374C430.613 409.407 431.221 409.568 431.779 409.847C432.336 410.125 432.83 410.516 433.23 410.994C435.332 413.2 436.708 415.997 437.171 419.009C437.635 422.021 437.163 425.103 435.821 427.838C435.271 429.273 434.352 430.537 433.158 431.504C432.312 432.189 431.348 432.708 430.318 433.037C429.471 433.308 428.605 433.571 427.721 433.659C426.201 433.812 424.825 432.851 423.923 431.618C423.315 430.788 422.812 429.882 422.427 428.92C421.755 427.24 421.462 425.433 421.568 423.627C421.58 421.286 422.144 418.982 423.213 416.899C423.936 415.492 424.876 414.212 425.995 413.107C427.043 412.071 428.516 411.642 429.99 411.642M429.99 410.942C429.99 411.296 429.655 411.555 429.304 411.508C428.688 411.426 428.063 411.442 427.451 411.558C427.201 411.605 426.969 411.719 426.767 411.875C425.107 413.166 423.713 414.768 422.664 416.594C421.551 418.531 420.85 420.678 420.607 422.899C420.364 425.119 420.582 427.367 421.249 429.499C421.654 430.791 422.217 432.024 422.924 433.17C423.843 434.659 425.163 435.927 426.825 436.473C428.443 437.006 430.231 436.827 431.763 436.082C432.499 435.723 433.193 435.278 433.829 434.753C435.127 433.68 436.144 432.308 436.793 430.754C438.289 427.833 438.843 424.521 438.379 421.272C437.915 418.023 436.456 414.998 434.201 412.614C433.686 411.974 433.048 411.443 432.325 411.054C431.777 410.759 431.189 410.549 430.58 410.431C430.266 410.37 429.99 410.622 429.99 410.942Z" fill="white" fill-opacity="0.2"/>
<path d="M94.3814 172.904C96.2902 172.929 98.1597 173.45 99.8066 174.415C101.453 175.38 102.821 176.757 103.775 178.411C105.074 180.487 105.955 182.798 106.367 185.213C107.342 192.198 107.342 199.284 106.367 206.269C106.367 208.212 106.367 210.156 106.367 212.1C105.585 221.153 105.585 230.257 106.367 239.31V245.465C106.367 253.563 106.367 262.309 106.367 270.731C106.823 279.199 105.612 287.673 102.804 295.674C100.86 300.533 98.2685 303.125 94.0574 303.125C91.4829 303.125 88.9035 302.758 86.5424 301.732C83.399 300.366 80.4202 298.641 77.6659 296.59C77.1582 296.212 76.5452 295.998 75.9123 295.998C75.2853 295.998 74.6759 295.791 74.179 295.409L37.0452 266.844C33.7288 264.397 30.6778 261.617 27.9384 258.55C25.4604 255.776 22.8214 253.087 20.7694 249.985C18.663 246.801 17.4022 243.095 17.1575 239.221C16.7941 233.467 18.7008 227.801 22.4682 223.437C24.5492 220.381 27.1865 217.744 30.2426 215.663L45.4674 204.325C54.5376 197.847 63.6077 191.044 72.03 183.917C77.2686 178.897 83.4523 174.969 90.221 172.36C90.4026 172.29 90.5897 172.235 90.7815 172.202C91.9735 171.995 93.1944 172.014 94.3814 172.256L-nan -nanL94.3814 172.256M94.3814 171.457C94.3814 171.898 94.0236 172.256 93.5822 172.256H90.805C90.3851 172.256 89.968 172.329 89.5755 172.478C82.6706 175.1 76.3696 179.102 71.0582 184.241C57.7769 195.579 43.1999 205.297 29.5947 216.635C26.4046 218.906 23.5667 221.634 21.1724 224.733C17.3763 229.393 15.4693 235.309 15.8292 241.309C16.1892 247.308 18.79 252.954 23.116 257.126C27.0112 261.488 31.4789 265.301 36.3973 268.464C49.3546 278.182 62.6359 287.576 75.9172 296.97C79.0341 299.297 82.3952 301.27 85.938 302.855C88.4818 303.994 91.2705 304.421 94.0574 304.421C96.4286 304.33 98.7024 303.454 100.521 301.929C102.339 300.404 103.598 298.318 104.099 295.998C106.909 287.886 108.119 279.305 107.663 270.731C107.663 260.042 107.663 249.676 107.663 238.338C107.015 229.28 107.015 220.186 107.663 211.128C108.956 202.212 108.956 193.157 107.663 184.241C107.14 181.652 106.269 179.145 105.071 176.791C103.941 174.957 102.372 173.434 100.506 172.36C98.8766 171.422 97.066 170.851 95.2003 170.684C94.7525 170.643 94.3814 171.007 94.3814 171.457Z" fill="white" fill-opacity="0.2"/>
<path d="M445.838 200.113C448.418 200.113 451.039 200.342 453.369 201.451C454.731 202.099 456.023 202.893 457.221 203.822C459.447 205.546 461.304 207.7 462.682 210.155C464.183 212.724 465.131 215.578 465.466 218.534C465.801 221.491 465.515 224.484 464.626 227.324C462.991 232.149 460.34 236.567 456.852 240.281C453.535 244.083 449.964 247.654 446.162 250.971L440.331 256.802C428.223 269.384 416.762 282.575 405.994 296.322C398.399 305.697 389.446 313.886 379.432 320.617C373.658 324.248 367.111 326.467 360.32 327.095C358.824 327.249 357.314 327 355.946 326.374C354.579 325.747 353.405 324.766 352.545 323.532C351.688 322.115 351.234 320.491 351.234 318.835C351.234 318.507 351.252 318.18 351.287 317.855C351.572 315.237 353.016 312.897 354.229 310.559C355.519 308.072 357.015 305.693 358.7 303.448C370.206 288.611 379.182 271.974 385.262 254.21C388.981 243.011 395.056 232.738 403.079 224.084C411.232 216.23 420.381 209.478 430.289 204.001C434.877 201.447 439.957 199.901 445.19 199.466L-nan -nanL445.19 199.466M445.19 199.466C439.716 199.939 434.411 201.597 429.641 204.325C419.537 209.646 410.261 216.412 402.107 224.408C393.726 233.722 387.529 244.789 383.967 256.802C377.506 273.397 368.548 288.909 357.404 302.8C356.002 304.592 354.744 306.488 353.64 308.471C351.84 311.703 349.685 315.039 349.648 318.738C349.648 318.77 349.648 318.803 349.648 318.835C349.648 320.735 350.204 322.593 351.249 324.18C352.186 325.612 353.495 326.76 355.036 327.503C356.578 328.245 358.293 328.552 359.996 328.391L-nan -nanL359.996 328.391C366.955 327.851 373.654 325.506 379.432 321.588C389.618 314.948 398.6 306.622 405.994 296.969C417.008 283.688 428.022 270.731 440.331 258.421C445.838 252.914 451.669 247.732 456.852 241.901C460.52 238.017 463.285 233.372 464.95 228.296C466.654 222.368 465.94 216.007 462.966 210.603C460.726 206.536 457.342 203.26 453.28 201.152C450.61 199.766 447.55 199.466 444.542 199.466H445.19Z" fill="white" fill-opacity="0.2"/>
<path d="M398.25 480.966C395.377 479.726 392.828 477.841 390.8 475.459L387.56 472.544C383.296 468.916 379.488 464.782 376.223 460.234C373.375 455.933 371.595 451.015 371.032 445.888C370.468 440.76 371.137 435.573 372.983 430.756C375.471 422.573 378.501 414.565 382.054 406.785L384.969 399.983C390.716 387.013 394.955 373.427 397.602 359.491C398.568 353.479 398.229 347.33 396.608 341.462C394.987 335.593 392.122 330.141 388.208 325.478C384.797 321.386 380.542 318.08 375.733 315.788C370.924 313.495 365.677 312.27 360.35 312.197H352.645C349.796 312.197 346.848 312.176 344.308 310.886C343.037 310.24 341.868 309.396 340.848 308.375C338.81 306.338 337.472 303.706 337.027 300.859C336.535 297.53 336.535 294.146 337.027 290.817C337.294 281.824 336.752 272.826 335.407 263.931C334.771 254.588 331.431 245.633 325.794 238.156C320.158 230.679 312.468 225.003 303.662 221.819L292.324 218.58L273.536 210.482C258.593 203.377 246.001 192.134 237.255 178.088L233.368 171.934C230.229 166.164 226.655 160.641 222.678 155.413C220.762 152.088 218.033 149.303 214.747 147.32C211.461 145.337 207.725 144.221 203.89 144.075C198.468 144.279 193.203 145.959 188.665 148.934C178.288 154.854 169.486 163.183 163.003 173.218C156.519 183.254 152.544 194.701 151.413 206.594C150.176 217.61 150.521 228.735 152.43 239.632C153.15 243.746 153.681 247.899 153.681 252.075C153.681 252.139 153.681 252.204 153.681 252.269C153.681 254.537 156.272 263.931 157.244 270.085C158.821 279.522 158.821 289.155 157.244 298.591C154.692 313.119 149.768 327.127 142.667 340.055C139.514 346.18 134.917 351.445 129.273 355.396C123.629 359.347 117.108 361.864 110.274 362.73H96.6684C79.5235 362.569 62.6163 358.701 47.1066 351.393L39.6561 347.829C32.4582 344.306 24.9825 341.38 17.3047 339.083C10.7489 337.215 4.01937 336.021 -2.77912 335.52C-8.14622 335.52 -12.4971 331.169 -12.4971 325.802V305.52C-12.4971 304.198 -11.4253 303.126 -10.1032 303.126C-9.97172 303.126 -9.84037 303.137 -9.71071 303.159C10.6599 306.578 29.8558 315.028 46.1348 327.745C53.3107 333.525 61.0105 338.622 69.134 342.97C77.7484 347.877 87.411 350.654 97.3162 351.069H99.5838C106.098 351.141 112.517 349.505 118.201 346.321C123.885 343.138 128.635 338.52 131.977 332.928C139.44 320 143.559 305.415 143.963 290.493C143.85 280.547 142.545 270.65 140.075 261.015C136.994 248.192 135.794 234.988 136.512 221.819C136.246 202.954 139.771 184.228 146.878 166.751C150.828 158.471 155.837 150.74 161.779 143.751L168.582 135.329C175.708 126.583 182.835 117.837 190.609 109.414C194.601 104.963 199.053 100.945 203.89 97.4289C213.61 90.1084 221.947 81.1135 228.509 70.8664C236.207 59.3486 244.877 48.5112 254.424 38.4731C261.445 32.5504 268.8 27.0345 276.451 21.9525L279.691 19.361C286.625 14.1618 291.883 7.04724 294.82 -1.10278C294.884 -1.27981 294.915 -1.46684 294.915 -1.65502C294.915 -2.57141 295.658 -3.3143 296.575 -3.3143H331.997C333.077 -3.3143 334.141 -2.62829 334.001 -1.55747C333.929 -1.00261 333.864 -0.430714 334.018 0.107133C336.378 8.32877 340.75 15.8379 346.745 21.9525C359.251 35.6363 369.232 51.4296 376.223 68.5989C380.28 80.1376 385.952 91.0436 393.067 100.992C399.699 108.928 407.196 116.099 415.419 122.372L420.925 126.583C429.348 133.062 437.77 139.864 446.84 145.695C452.69 149.709 459.519 152.06 466.6 152.498C470.485 152.54 474.331 151.72 477.86 150.095C481.389 148.471 484.514 146.083 487.008 143.104C492.462 136.961 497.041 130.093 500.613 122.696C505.148 113.302 509.035 103.908 512.599 94.5135L516.486 84.1477C521 75.7113 526.087 67.594 531.711 59.8527C535.57 53.558 536.955 46.0548 535.598 38.797C534.007 28.0697 533.141 17.2474 533.006 6.4037C533.006 4.78403 533.006 3.4883 533.006 2.19257C533.255 0.135627 534.831 -1.69463 536.903 -1.69463H564.255C566.679 -1.69463 569.317 -1.0131 570.259 1.22077C572.027 6.04869 574.423 10.623 577.385 14.826C581.07 20.2035 585.872 24.7234 591.462 28.0774C597.052 31.4315 603.299 33.5409 609.779 34.262H635.693C643.409 34.3749 651.103 35.1334 658.692 36.5295C665.364 38.0807 671.372 41.7068 675.854 46.8868C680.336 52.0668 683.06 58.5341 683.635 65.3595C684.79 72.9825 684.79 80.7359 683.635 88.3588C682.362 96.4929 678.539 104.013 672.718 109.834C666.896 115.656 659.376 119.479 651.242 120.752C647.586 121.227 643.884 121.227 640.228 120.752C631.307 120.636 622.539 118.417 614.638 114.273C609.131 111.682 603.624 108.119 598.117 104.879L591.638 100.668C588.137 98.511 584.451 96.6682 580.625 95.1614C576.73 93.5015 572.548 92.6211 568.315 92.5699C561.54 92.7845 554.944 94.7969 549.203 98.4007C541.035 103.713 534.17 110.799 529.119 119.132C524.634 126.566 520.5 134.205 516.729 142.024C515.246 145.099 514.125 148.334 513.297 151.646L513.012 152.787C512.306 155.613 511.433 158.409 510.054 160.975C508.252 164.327 506.063 167.462 503.528 170.314C501.068 173.226 497.988 175.552 494.513 177.122C491.038 178.691 487.257 179.464 483.445 179.384H480.529C466.645 178.999 453.434 173.321 443.601 163.511L426.108 147.962L393.715 119.78C382.728 109.652 373.721 97.5694 367.153 84.1477L-nan -nanL367.153 84.1477C362.915 74.0714 356.877 64.8509 349.336 56.9373C340.942 47.7785 329.339 42.2093 316.943 41.3885C312.998 41.5008 309.132 42.5243 305.648 44.3787C302.164 46.2331 299.156 48.8684 296.859 52.0783C293.385 56.0633 290.344 60.4069 287.789 65.0356C278.189 80.4631 267.356 95.0879 255.396 108.767C249.588 115.505 245.676 123.666 244.058 132.414C242.483 142.673 243.599 153.165 247.297 162.863C250.597 171.402 255.915 179.015 262.797 185.051C268.648 190.183 275.481 194.045 282.864 196.413C285.468 197.248 288.082 198.06 290.642 199.021C295.198 200.729 299.754 202.174 304.31 203.355L316.943 207.242C331.099 212.241 342.729 222.592 349.336 236.072C351.604 239.96 353.547 244.171 355.491 248.058C357.435 251.945 358.406 254.213 359.702 257.128C365.49 267.916 373.559 277.312 383.349 284.662C393.893 293.04 403.751 302.248 412.827 312.197C421.572 322.415 429.582 333.24 436.798 344.59C441.981 352.364 446.516 355.604 452.023 355.604C456.84 355.127 461.489 353.578 465.628 351.069C476.821 345.033 485.704 335.466 490.895 323.858C496.809 311.8 501.896 299.354 506.12 286.606C509.847 276.167 512.136 265.269 512.923 254.213C512.923 248.382 512.923 242.875 512.923 237.692C512.923 232.509 512.923 227.974 512.923 223.115C513.084 217.649 513.845 212.218 515.19 206.918C516.184 202.159 518.725 197.863 522.417 194.699C526.108 191.535 530.743 189.681 535.598 189.426C540.23 188.975 544.895 188.975 549.527 189.426C559.573 189.27 569.457 191.965 578.033 197.2C587.978 203.663 596.205 212.445 602.004 222.791C610.532 237.58 615.728 254.052 617.229 271.057V275.268C617.447 284.719 618.973 294.094 621.764 303.126C624.174 311.732 629.572 319.197 636.989 324.182C638.551 325.174 640.22 325.978 641.962 326.578C643.999 327.281 646.172 327.422 648.327 327.422C650.908 327.418 653.423 326.602 655.516 325.091C657.608 323.58 659.173 321.449 659.988 318.999C662.289 312.757 663.981 306.308 665.041 299.742C665.13 299.192 665.171 298.636 665.171 298.078C665.171 297.557 665.207 297.037 665.284 296.521C667.29 283.024 671.177 269.873 676.833 257.452C681.406 248.304 687.18 239.806 694.001 232.185C700.48 225.059 707.606 218.58 714.085 212.425L719.916 207.242C728.589 198.797 736.603 189.701 743.887 180.032C752.94 168.654 762.676 157.836 773.041 147.639C778.143 142.855 783.873 137.445 790.848 131.406C791.062 131.22 791.337 131.118 791.62 131.118C792.272 131.118 792.801 131.647 792.801 132.298V177.088C792.801 185.17 791.119 193.697 784.761 198.687C783.812 199.432 782.819 200.126 781.787 200.764C773.048 206.877 763.842 212.293 754.253 216.96L747.126 220.524C737.178 225.175 727.547 230.477 718.296 236.396C702.393 246.539 690.843 262.247 685.903 280.451C684.293 286.368 683.422 292.461 683.311 298.591V301.831C682.679 307.753 682.679 313.725 683.311 319.647C684.051 325.363 686.302 330.778 689.833 335.333C693.363 339.888 698.045 343.419 703.395 345.562C708.483 347.822 713.733 349.695 719.1 351.165C721.347 351.781 723.691 351.938 726.012 351.736C728.621 351.509 731.253 351.745 733.758 352.507C744.488 355.773 754.921 359.951 764.943 364.998C772.089 368.939 778.159 374.574 782.621 381.408C787.082 388.241 789.799 396.065 790.533 404.194C792.281 415.9 790.117 427.855 784.379 438.207C780.521 444.787 774.6 449.91 767.534 452.784C762.404 454.893 757.141 456.665 751.781 458.086C750.413 458.448 749.003 458.614 747.588 458.614C745.992 458.614 744.401 458.825 742.873 459.287C738.93 460.48 735.052 461.877 731.254 463.473C725.923 465.912 721.42 469.852 718.296 474.811C717.178 476.761 714.81 477.403 712.563 477.403H694.973C692.826 477.403 691.086 475.662 691.086 473.515C690.353 468.345 689.161 463.249 687.523 458.29C686.77 456.152 685.529 454.219 683.898 452.645C682.267 451.07 680.292 449.898 678.128 449.22C672.571 448.017 666.946 447.151 661.284 446.629L636.341 444.361H627.919C613.992 443.655 600.321 448.289 589.695 457.319C583.844 462.588 579.107 468.977 575.766 476.107C574.824 478.341 572.186 479.022 569.762 479.022H548.865C547.799 479.022 546.936 478.691 546.936 477.625C546.936 477.401 546.974 476.647 547.051 476.437C549.627 469.419 553.305 462.855 557.949 456.995C569.687 442.6 585.673 432.283 603.624 427.517C608.055 426.279 612.629 425.626 617.229 425.573H631.158C635.472 425.861 639.801 425.861 644.115 425.573C647.319 425.402 650.456 424.599 653.348 423.209C656.239 421.819 658.826 419.87 660.96 417.475C662.759 415.288 664.082 412.751 664.847 410.024C667.411 400.684 667.182 390.798 664.188 381.587C661.194 372.376 655.567 364.243 648.003 358.195L644.439 355.928C639.256 352.364 633.75 348.477 628.891 344.59C616.9 334.5 608.711 320.673 605.597 305.393C605.072 302.819 604.525 300.248 603.863 297.706C602.14 291.094 600.976 284.347 600.384 277.536C600.377 266.58 598.851 255.679 595.849 245.142C592.494 233.671 585.712 223.498 576.413 215.988C570.889 211.551 564.061 209.048 556.977 208.862H556.702C552.58 208.862 548.353 209.098 544.684 210.977C542.724 211.98 540.898 213.243 539.257 214.738C536.078 217.632 533.702 221.299 532.358 225.383C529.973 231.932 528.661 238.823 528.471 245.79C527.346 264.539 525.158 283.208 521.919 301.706C521.339 305.025 521.079 308.391 520.78 311.746C520.17 318.577 518.56 325.533 517.782 332.28V335.844C517.341 350.546 512.236 364.726 503.205 376.335C500.24 379.732 497.104 382.975 493.81 386.053L487.98 392.208C482.279 398.13 477.976 405.221 475.352 412.959C474.063 416.759 474.216 420.882 473.221 424.77C472.855 426.2 472.224 427.64 471.135 429.136C468.544 432.7 468.868 439.178 467.572 444.361C466.276 449.544 462.065 461.53 458.826 469.628L456.691 475.321C456.372 476.171 455.616 477.815 455.088 478.554C454.882 478.842 454.081 479.67 453.727 479.67H398.25M398.25 480.16C398.25 479.89 398.47 479.67 398.74 479.67H452.922C454.253 479.67 455.68 479.5 456.564 478.505C457.012 478.001 457.342 477.403 457.53 476.755C461.417 465.741 465.952 454.727 469.192 444.361C472.431 433.995 473.079 427.193 475.346 418.771C477.538 409.023 482.355 400.061 489.275 392.856C494.134 387.349 499.641 382.49 504.5 376.659C513.697 364.943 519.12 350.71 520.049 335.844C520.487 326.065 521.57 316.326 523.288 306.69C527.066 286.678 529.554 266.445 530.739 246.114C531.188 239.294 532.832 232.605 535.598 226.354C536.838 222.448 539.073 218.93 542.083 216.148C543.578 214.765 545.239 213.588 547.021 212.639C550.63 210.717 554.831 210.482 558.921 210.482C565.744 210.713 572.32 213.094 577.709 217.284C586.617 224.751 593.148 234.66 596.497 245.79C599.632 256.298 601.161 267.219 601.032 278.184C600.875 286.326 601.526 294.465 602.976 302.479C605.467 319.532 614.108 335.086 627.271 346.21C633.426 351.069 639.904 355.604 646.383 359.815C653.92 365.583 659.532 373.499 662.481 382.519C665.43 391.54 665.577 401.242 662.904 410.348C662.111 412.802 660.906 415.103 659.34 417.151C657.289 419.453 654.801 421.326 652.021 422.66C649.24 423.995 646.223 424.765 643.144 424.925C638.939 425.248 634.715 425.248 630.51 424.925H616.581C611.881 425.066 607.211 425.718 602.652 426.869C584.523 432.003 568.374 442.506 556.33 456.995C551.58 462.721 547.823 469.199 545.211 476.162C545.064 476.553 544.992 477.045 544.992 477.463C544.992 479.44 546.594 480.966 548.571 480.966H568.316C570.852 480.966 573.632 480.368 574.728 478.081C575.036 477.438 575.274 476.756 575.602 476.123C578.974 469.611 583.533 463.782 589.047 458.938C599.423 450.174 612.732 445.66 626.299 446.305H634.721L659.664 448.573C665.112 449.093 670.522 449.959 675.861 451.164C677.952 451.629 679.874 452.661 681.417 454.147C682.959 455.633 684.063 457.515 684.607 459.586C686.438 464.377 687.636 469.386 688.17 474.487C688.082 478.617 692.554 480.642 696.685 480.642H711.196C714.32 480.642 717.519 479.667 719.268 477.079C722.311 472.452 726.57 468.753 731.577 466.389C736.121 464.586 740.773 463.071 745.507 461.854C753.157 460.159 760.638 457.774 767.858 454.727C775.269 451.847 781.529 446.611 785.674 439.826C791.421 429.125 793.578 416.861 791.829 404.841C791.02 396.569 788.208 388.618 783.636 381.675C779.064 374.733 772.871 369.009 765.59 364.998C754.223 359.225 742.28 354.665 729.958 351.393C721.501 349.523 713.254 346.81 705.339 343.294C700.238 341.144 695.773 337.722 692.371 333.355C688.968 328.989 686.741 323.823 685.903 318.351C685.268 311.455 685.268 304.516 685.903 297.62C685.933 291.589 686.805 285.593 688.494 279.803C693.578 261.839 705.113 246.382 720.888 236.396C732.416 229.201 744.431 222.815 756.844 217.284C766.53 212.672 775.751 207.14 784.379 200.764C784.908 200.382 785.428 199.987 785.936 199.579C792.835 194.041 794.744 184.758 794.744 175.912V130.013C794.744 128.118 793.365 126.407 792.128 127.841C791.808 128.212 791.317 129.021 790.955 129.351L773.365 145.371C762.999 156.061 753.605 167.722 744.211 177.764C736.918 187.426 728.905 196.522 720.24 204.975C711.494 213.073 702.747 221.171 694.325 229.918C687.47 237.818 681.596 246.52 676.833 255.832C670.988 268.913 667.06 282.769 665.171 296.972C664.553 303.975 662.916 310.85 660.312 317.38C659.674 319.632 658.314 321.612 656.441 323.016C654.569 324.421 652.287 325.172 649.946 325.154C647.145 325.154 644.31 324.991 641.689 324.003C640.403 323.519 639.155 322.929 637.961 322.239C630.747 317.471 625.554 310.201 623.384 301.831C620.321 291.289 618.58 280.408 618.201 269.437C616.875 252.647 611.782 236.371 603.3 221.819C597.298 211.239 588.858 202.244 578.681 195.581C569.85 190.388 559.771 187.7 549.527 187.806C544.852 188.024 540.198 188.565 535.598 189.426C530.833 189.85 526.324 191.771 522.717 194.913C519.11 198.055 516.589 202.257 515.514 206.918C514.117 211.778 513.248 216.774 512.923 221.819C512.923 232.185 512.923 242.227 512.923 254.213C512.136 265.269 509.847 276.167 506.12 286.606C501.769 298.985 496.463 311.007 490.247 322.562C485.107 333.831 476.474 343.145 465.628 349.125C461.615 351.65 457.067 353.203 452.347 353.66C447.488 353.66 443.277 350.745 438.418 343.294C431.064 331.958 422.947 321.135 414.123 310.901C405.106 300.794 395.244 291.475 384.645 283.043C374.973 275.921 367.006 266.737 361.322 256.156C357.759 249.03 354.843 241.579 350.956 234.777C344.344 221.156 332.745 210.6 318.563 205.299C308.521 202.059 298.479 199.468 288.437 195.581C279.99 193.138 272.227 188.765 265.761 182.805C259.296 176.846 254.305 169.464 251.185 161.244C247.541 151.758 246.424 141.489 247.945 131.442C249.523 122.841 253.319 114.801 258.959 108.119C270.856 94.3888 281.685 79.7692 291.352 64.3877C293.779 59.8583 296.713 55.6199 300.098 51.7543C302.295 48.696 305.156 46.1746 308.466 44.3794C311.776 42.5842 315.449 41.5616 319.21 41.3885C330.916 42.4461 341.791 47.8835 349.66 56.6133C357.272 64.6586 363.412 73.9783 367.8 84.1477C374.367 97.6655 383.372 109.855 394.363 120.104C410.56 135.005 426.756 149.258 442.953 163.835C453.033 173.908 466.607 179.709 480.853 180.032H484.092C487.754 179.869 491.342 178.951 494.631 177.334C497.92 175.717 500.839 173.437 503.205 170.638C507.168 166.592 510.548 162.013 513.246 157.033C518.624 144.768 524.792 132.866 531.711 121.4C536.535 113.282 543.191 106.404 551.147 101.316C556.68 97.779 563.05 95.7674 569.611 95.4853C573.631 95.5707 577.594 96.4514 581.272 98.0768C585.098 99.5852 588.784 101.428 592.286 103.584C600.061 108.119 607.511 113.302 615.285 117.189C623.403 121.374 632.391 123.593 641.524 123.668C645.289 124.125 649.096 124.125 652.862 123.668C661.242 122.078 668.898 117.862 674.722 111.63C680.546 105.399 684.235 97.4749 685.255 89.0067C686.227 81.2627 686.227 73.4275 685.255 65.6835C684.825 58.5539 682.051 51.7663 677.364 46.3766C672.678 40.9868 666.341 37.2972 659.34 35.8816C648.643 34.0065 637.807 33.0313 626.947 32.9662C621.764 32.9662 616.581 32.9662 611.722 32.9662C605.28 32.3846 599.042 30.4016 593.447 27.1562C587.851 23.9108 583.033 19.4813 579.329 14.1781C577.12 10.9186 575.199 7.47526 573.587 3.8875C572.608 1.70704 572.196 -0.777093 570.744 -2.6759C569.309 -4.55358 566.762 -4.93396 564.398 -4.93396L539.001 -4.93396C536.822 -4.93396 533.978 -4.19729 533.978 -2.01856C533.978 -0.72283 533.978 3.16437 533.978 6.07977C534.066 16.9256 534.932 27.7512 536.57 38.4731C537.848 45.2738 536.58 52.3072 533.006 58.233C528.873 66.0029 525.196 74.0068 521.993 82.2041C517.134 94.8375 512.599 108.119 506.444 120.428C502.783 127.675 498.211 134.425 492.839 140.512C490.421 143.308 487.439 145.561 484.09 147.124C480.74 148.687 477.098 149.525 473.403 149.582L-nan -nanL473.403 149.582C466.56 149.206 459.951 146.965 454.291 143.104C443.601 135.977 433.235 127.879 421.897 119.78C413.601 113.594 406.095 106.414 399.546 98.4007C392.356 88.5475 386.779 77.613 383.025 66.0074C375.027 49.1567 364.177 33.8142 350.956 20.6568C344.983 14.4754 340.642 6.90575 338.323 -1.3707C337.633 -4.06011 334.537 -4.93396 331.761 -4.93396L299.656 -4.93396C297.438 -4.93396 295.182 -4.18649 293.991 -2.31587C293.732 -1.91006 293.539 -1.46674 293.366 -1.01756C290.379 6.76878 285.176 13.5169 278.395 18.3892C270.268 24.433 262.482 30.9216 255.072 37.8252C245.267 47.7213 236.478 58.5731 228.833 70.2185C222.302 80.2025 214.08 88.9719 204.538 96.1332C199.812 99.9011 195.372 104.016 191.257 108.443C180.567 119.456 171.497 131.442 162.103 143.104C156.073 150.093 150.957 157.822 146.878 166.103C139.179 183.668 135.208 202.64 135.216 221.819C134.764 234.611 136.294 247.396 139.751 259.719C142.337 269.221 143.644 279.026 143.639 288.873C143.462 303.625 139.322 318.058 131.653 330.661C128.358 336.249 123.599 340.832 117.891 343.914C112.182 346.997 105.74 348.463 99.2598 348.153H97.3162C87.5629 347.694 78.0396 345.036 69.458 340.379C61.6866 335.792 54.2204 330.706 47.1066 325.154C30.8724 312.387 11.8261 303.689 -8.44181 299.778C-9.19938 299.632 -9.96988 299.563 -10.7414 299.563H-12.394C-12.6768 299.563 -12.9579 299.509 -13.235 299.451C-14.3353 299.225 -15.0886 300.32 -15.0886 301.444L-15.0886 333.454C-15.0886 334.11 -14.6741 334.725 -14.0194 334.764C-13.5062 334.794 -12.9886 334.722 -12.4971 334.548L-nan -nanL-12.4971 334.548H-4.39878C2.38562 334.969 9.11243 336.054 15.6851 337.787C26.1606 341.297 36.3423 345.63 46.1348 350.745C61.739 358.515 78.9131 362.614 96.3444 362.73H105.728C108.753 362.73 111.793 362.554 114.712 361.76C119.903 360.347 124.81 358.012 129.196 354.854C134.814 350.809 139.424 345.523 142.667 339.407C149.624 326.301 154.54 312.209 157.244 297.62C158.502 289.326 158.68 280.91 157.779 272.582C157.481 269.834 157.314 267.069 156.984 264.325C156.177 257.607 153.673 250.889 152.061 244.171C149.03 231.447 148.262 218.289 149.793 205.299C151.46 193.533 155.917 182.337 162.792 172.644C169.667 162.952 178.76 155.045 189.313 149.582C193.708 146.857 198.725 145.296 203.89 145.047C207.644 145.328 211.261 146.581 214.384 148.682C216.261 149.944 217.92 151.486 219.309 153.247C221.16 155.593 222.595 158.243 224.294 160.7C228.471 166.742 232.364 172.977 235.96 179.384C244.88 193.524 257.706 204.776 272.888 211.777C282.606 216.636 292.972 220.2 303.014 224.735C311.007 227.764 318.013 232.931 323.269 239.672C328.525 246.413 331.827 254.469 332.816 262.959C333.62 271.795 333.62 280.685 332.816 289.521C332.32 292.959 332.32 296.45 332.816 299.887C333.318 302.97 334.777 305.817 336.986 308.026C338.136 309.176 339.459 310.123 340.899 310.838C343.555 312.156 346.615 312.197 349.581 312.197H357.435C363.183 312.049 368.892 313.189 374.143 315.534C379.394 317.879 384.054 321.369 387.781 325.748C391.508 330.128 394.208 335.285 395.684 340.844C397.159 346.402 397.372 352.22 396.307 357.871C393.726 371.824 389.485 385.418 383.673 398.363C379.462 408.405 374.927 418.447 371.688 428.813C369.856 433.851 369.195 439.241 369.757 444.573C370.318 449.905 372.086 455.039 374.927 459.586C378.295 464.249 382.21 468.49 386.589 472.22C389.778 475.568 393.473 478.392 397.538 480.589C397.861 480.764 398.25 480.528 398.25 480.16Z" fill="white" fill-opacity="0.2"/>
<path d="M-12.1732 186.834V168.37C-12.1732 167.297 -11.303 166.427 -10.2296 166.427H3.05168C10.5261 166.626 17.9786 165.53 25.0791 163.187C39.3237 157.644 50.9118 146.867 57.4725 133.062C63.4404 121.289 66.7574 108.353 67.1904 95.1614C67.8384 85.8866 67.8384 76.5779 67.1904 67.3031C67.2152 57.7254 66.2381 48.1714 64.2751 38.797C63.4792 35.0188 61.7182 31.5111 59.1635 28.6159C56.6089 25.7206 53.3478 23.5365 49.6981 22.2764C41.5587 19.8613 33.206 18.2342 24.7552 17.4174L6.61495 16.7696H-2.77912C-5.25238 16.4509 -7.75631 16.4509 -10.2296 16.7696L-nan -nanL-10.2296 16.7696H-12.6591C-14.0009 16.7696 -15.0886 15.6818 -15.0886 14.3401V5.9178C-15.0886 -0.0754561 -10.2301 -4.93396 -4.23682 -4.93396H73.4072C81.6351 -4.93396 89.7366 -1.6178 97.9641 -1.69463H104.767H105.319C107.506 -1.69463 109.657 -2.25206 111.569 -3.3143C113.481 -4.37653 115.633 -4.93396 117.82 -4.93396H142.987C144.063 -4.93396 144.934 -4.91024 144.934 -3.83494C144.934 -3.41646 144.8 -2.16057 144.547 -1.82713C139.889 4.31633 134.213 9.62013 127.766 13.8542L120.639 19.361C115.039 22.8441 109.632 26.6289 104.443 30.6987C96.705 37.5214 91.2727 46.5752 88.894 56.6133C86.1328 67.199 84.6109 78.0697 84.3589 89.0067L-nan -nanL84.3589 89.0067C83.6446 105.737 79.5684 122.152 72.3734 137.273C69.6664 142.466 66.4083 147.353 62.6554 151.85C49.016 168.858 29.6882 180.363 8.23461 184.243L-11.2014 187.158M-11.5856 188.055C-11.3467 187.497 -10.8368 187.103 -10.2371 187.011L7.91068 184.243C29.6949 180.527 49.3834 169.014 63.3033 151.85C67.1228 147.334 70.4865 142.451 73.3452 137.273C80.5406 122.037 84.6157 105.517 85.3307 88.6827C85.8859 77.7519 87.5134 66.9021 90.1897 56.2894C92.4549 46.5411 97.6558 37.7222 105.091 31.0226C112.217 25.1918 119.992 20.6568 127.766 15.4738C133.556 11.7139 138.744 7.10916 143.161 1.81697C144.076 0.720521 145.46 -1.03476 146.102 -2.31076C146.638 -3.37804 145.91 -4.93396 144.715 -4.93396H119.034C116.021 -4.93396 113.043 -4.38321 110.115 -3.67378C108.352 -3.24651 106.567 -2.91018 104.767 -2.66643C104.016 -2.54765 103.26 -2.47042 102.503 -2.43476C99.6973 -2.3026 96.8546 -2.41605 94.0604 -2.70029C88.7455 -3.24095 83.5233 -4.93396 78.1809 -4.93396L-12.821 -4.93396C-15.0886 -4.93396 -15.0886 -4.93396 -15.0886 -2.66643V15.4121C-15.0886 16.444 -14.5008 17.4829 -13.4689 17.4829C-12.9058 17.4829 -12.3508 17.3494 -11.8492 17.0935L-nan -nanL-11.8492 17.0935C-9.37533 16.7852 -6.8727 16.7852 -4.39878 17.0935H6.61495H20.7685C23.4228 17.0935 26.0776 17.2635 28.6898 17.7346C35.855 19.0269 42.888 20.9806 49.6981 23.5722C53.1194 24.7061 56.1654 26.7543 58.5064 29.4949C60.8474 32.2356 62.3942 35.5644 62.9793 39.121C64.911 48.3908 65.8879 57.8342 65.8947 67.3031C66.5427 76.5779 66.5427 85.8866 65.8947 95.1614C65.6718 108.176 62.3398 120.949 56.1767 132.414C49.6479 146.097 38.0197 156.678 23.7834 161.892C16.9055 164.231 9.66609 165.328 2.40381 165.131H-10.1867C-11.2842 165.131 -12.3714 164.807 -13.4689 164.807C-14.4756 164.807 -15.0886 165.787 -15.0886 166.793L-15.0886 186.187C-14.9819 186.956 -14.6472 187.676 -14.1275 188.253C-13.9432 188.458 -13.7386 188.642 -13.5177 188.802C-12.8211 189.306 -11.9244 188.846 -11.5856 188.055Z" fill="white" fill-opacity="0.2"/>
<path d="M158.224 480.965C159.565 471.896 162.182 463.062 165.998 454.727C171.151 443.577 176.993 432.758 183.49 422.333L189.321 412.615C194.51 402.63 200.354 392.999 206.814 383.785C212.437 375.298 219.732 368.048 228.254 362.478C235.449 357.776 243.391 354.354 251.726 352.353C254.798 351.616 257.964 351.392 261.124 351.392H264.474C269.589 351.206 274.682 352.155 279.387 354.172C284.091 356.188 288.291 359.221 291.684 363.054C295.855 368.167 298.842 374.141 300.43 380.546C304.045 391.094 306.754 401.931 308.529 412.939L308.853 416.179C311.453 432.242 316.363 447.844 323.43 462.501C324.096 463.86 324.723 465.237 325.31 466.63C328.392 473.933 322.448 481.289 314.521 481.289H304.641C303.21 481.289 302.05 480.129 302.05 478.698V476.43C300.43 464.769 298.487 452.459 297.839 440.15V435.939C297.839 429.62 297.839 422.873 296.621 416.22C296.059 413.146 295.46 410.072 294.937 406.99C293.254 397.089 289.503 387.634 283.91 379.25C281.165 375.558 277.666 372.493 273.644 370.259C269.623 368.025 265.171 366.673 260.587 366.293H255.728C249.677 366.37 243.702 367.64 238.143 370.03C232.585 372.421 227.552 375.884 223.334 380.222C215.534 388.321 209.082 397.617 204.222 407.756L190.617 432.699C188.026 437.882 185.11 442.741 182.195 447.924C176.885 457.109 172.981 467.037 170.612 477.378C170.559 477.609 170.533 478.044 170.533 478.282C170.533 480.052 169.098 481.289 167.327 481.289H158.224M158.122 481.315C158.189 481.298 158.259 481.289 158.329 481.289H169.108C170.886 481.289 172.814 480.893 173.696 479.349C174.595 477.777 174.599 475.861 175.021 474.1C177.156 465.208 180.437 456.626 184.786 448.572C191.913 435.291 199.687 422.01 206.814 408.404C211.514 398.349 217.864 389.152 225.602 381.194C233.497 372.921 244.3 368.042 255.728 367.589H258.319C262.757 367.749 267.102 368.911 271.029 370.986C274.955 373.062 278.362 375.997 280.994 379.574C287.617 389.157 291.534 400.347 292.332 411.968C292.332 421.686 294.276 431.08 294.923 440.798C295.777 453.609 297.29 466.367 299.459 479.022C299.804 481.845 302.99 482.909 305.834 482.909H310.26C321.534 482.909 330.167 472.546 325.049 462.501C318.11 447.794 313.206 432.21 310.472 416.179C308.363 403.799 305.441 391.571 301.726 379.574C300.026 373.05 296.931 366.971 292.656 361.758C289.103 357.844 284.744 354.745 279.879 352.676C275.014 350.607 269.758 349.617 264.474 349.772H260.766C257.844 349.772 254.916 349.964 252.063 350.595C243.433 352.504 235.195 355.922 227.734 360.705C219.04 366.278 211.587 373.584 205.842 382.166C199.228 391.116 193.274 400.535 188.026 410.348C179.428 424.248 171.641 438.633 164.702 453.431C160.816 461.985 158.244 471.074 157.073 480.391C156.999 480.983 157.544 481.459 158.122 481.315Z" fill="white" fill-opacity="0.2"/>
<path d="M36.7565 480.965L33.8411 478.697C28.6769 473.417 21.7694 470.193 14.4051 469.627H-9.98151C-10.3503 469.627 -10.7173 469.692 -11.0789 469.764C-12.6712 470.082 -13.7771 468.519 -13.7771 466.896V428.199C-13.7771 426.39 -12.311 424.924 -10.5026 424.924C-10.3104 424.924 -10.1187 424.908 -9.92947 424.874L4.36318 422.333C7.16142 422.012 9.98721 422.012 12.7854 422.333C22.4366 422.397 31.8304 425.453 39.6719 431.079C53.7288 440.096 64.9566 452.896 72.0652 468.008C74.7216 474.248 69.7273 480.641 62.9451 480.641H36.7565M36.5354 479.757C36.6654 480.276 37.1323 480.641 37.668 480.641H61.3064C68.9365 480.641 74.5701 473.474 71.7413 466.388C64.7045 451.057 53.4743 438.03 39.348 428.812C31.3874 422.9 21.7295 419.718 11.8136 419.742C9.01541 419.42 6.18962 419.42 3.39138 419.742C-7.82426 421.611 -16.0446 431.315 -16.0446 442.685V464.332C-16.0446 466.542 -14.5947 468.735 -12.4324 468.276C-11.8131 468.145 -11.1853 468.008 -10.5522 468.008H-6.00268H8.57432H14.4051C21.144 468.428 27.4821 471.308 32.2254 476.083C32.6611 476.522 33.121 476.937 33.621 477.3L36.0895 479.096C36.3111 479.257 36.469 479.491 36.5354 479.757Z" fill="white" fill-opacity="0.2"/>
<path d="M456.869 480.965L460.108 471.895C464.441 459.271 468.01 446.399 470.798 433.347C472.2 425.415 474.259 417.614 476.953 410.023C479.071 404.559 482.142 399.514 486.023 395.123L494.769 386.052L499.952 380.869C510.439 370.095 516.852 356.01 518.092 341.026C520.036 320.942 523.275 300.534 526.19 282.718C527.427 274.671 528.184 266.559 528.458 258.423V254.212C529.664 244.875 532.059 235.731 535.584 227.001C537.146 222.008 540.239 217.632 544.424 214.493C548.61 211.354 553.677 209.61 558.908 209.509C561.493 209.509 564.089 209.705 566.565 210.45C571.755 212.013 576.596 214.598 580.795 218.067C585.996 222.363 590.051 227.881 592.597 234.128C597.778 244.182 600.76 255.225 601.343 266.521C601.343 269.76 601.343 272.676 601.343 275.591C601.455 284.274 602.212 292.936 603.61 301.506C606.883 319.574 616.972 335.693 631.793 346.533L637.947 350.744L648.961 359.166C653.543 362.65 657.309 367.094 659.995 372.186C662.681 377.277 664.222 382.894 664.51 388.644C665.189 394.347 665.189 400.11 664.51 405.812C663.951 409.392 662.37 412.733 659.956 415.434C657.542 418.135 654.399 420.081 650.905 421.037C646.351 422.731 641.506 423.502 636.652 423.305H611.385C599.739 424.89 588.636 429.22 578.992 435.938C568.91 442.228 560.206 450.492 553.401 460.233C552.848 461.037 552.316 461.853 551.805 462.682C546.786 470.814 538.716 477.402 529.16 477.402H516.406C515.274 477.402 514.154 476.678 514.327 475.56C514.405 475.059 514.475 474.547 514.411 474.044C514.208 472.468 514.247 470.87 514.529 469.303C514.841 465.639 514.841 461.954 514.529 458.29C514.529 456.144 514.529 453.777 512.14 452.474C511.006 451.856 509.666 451.811 508.374 451.811C507.181 451.901 506.02 452.235 504.961 452.792C503.902 453.35 502.969 454.118 502.219 455.05C497.007 460.447 492.931 466.836 490.234 473.838L-nan -nanL490.234 473.838C490.156 474.656 489.915 475.45 489.526 476.173C488.772 477.573 487.1 478.049 485.51 478.049H461.08M458.764 478.307C459.006 478.139 459.294 478.049 459.589 478.049H482.967C486.42 478.049 490.214 477.074 491.414 473.835C491.8 472.794 492.058 471.697 492.506 470.681C495.265 464.425 499.1 458.695 503.839 453.754C504.442 452.924 505.217 452.233 506.112 451.73C507.006 451.227 507.999 450.923 509.022 450.839H510.642C511.691 450.839 512.368 451.476 512.846 452.406C514.399 455.429 514.339 459.024 514.414 462.422C514.496 466.12 514.426 469.821 514.205 473.514C514.205 476.019 516.235 478.049 518.74 478.049H532.337C540.705 478.049 547.705 472.117 551.8 464.819C552.684 463.244 553.65 461.713 554.697 460.233C561.281 450.505 569.902 442.325 579.963 436.262C589.578 429.544 600.707 425.315 612.357 423.953H637.299C642.253 424.04 647.184 423.273 651.877 421.685C655.627 420.712 659.008 418.657 661.599 415.778C664.191 412.898 665.879 409.32 666.454 405.488C667.101 399.676 667.101 393.809 666.454 387.996C666.35 381.762 664.874 375.628 662.131 370.029C660.341 366.377 658.042 363.012 655.31 360.031C652.399 356.855 648.613 354.673 644.718 352.831L637.293 349.321C634.28 347.897 631.364 346.248 628.807 344.112C616.451 333.788 608.071 319.406 605.23 303.449C602.802 291.915 601.178 280.225 600.371 268.465C600.118 256.398 597.128 244.546 591.625 233.804C588.884 227.442 584.66 221.829 579.306 217.434C575.04 213.931 570.156 211.283 564.92 209.617C562.252 208.768 559.44 208.537 556.64 208.537C551.102 208.58 545.724 210.396 541.293 213.719C536.863 217.042 533.613 221.697 532.021 227.001C529.649 235.674 528.237 244.582 527.81 253.564C527.81 263.282 527.81 273.324 525.219 283.042C521.979 302.154 519.064 321.59 517.12 341.35C515.962 356.005 509.65 369.777 499.304 380.222L485.375 394.475C481.444 398.951 478.369 404.111 476.305 409.7C473.551 417.407 471.385 425.312 469.826 433.347C466.196 447.994 461.768 462.43 456.561 476.592C456.07 477.927 457.594 479.117 458.764 478.307Z" fill="white" fill-opacity="0.2"/>
<path d="M470.811 150.556C468.338 150.871 465.834 150.871 463.361 150.556C457.603 149.223 452.193 146.684 447.488 143.105C433.926 134.13 421.042 124.169 408.94 113.304C399.769 105.239 392.283 95.4414 386.913 84.4736C384.702 80.2799 382.754 75.9523 381.082 71.5162C379.401 65.7867 377.443 60.1427 375.217 54.604C374.19 52.0496 372.922 49.5972 371.398 47.3042C366.659 40.1725 361.222 33.5252 355.167 27.4613C351.262 23.0084 347.586 18.3594 344.154 13.5322C339.123 6.08516 345.954 -2.34055 354.941 -2.34055H374.583C376.383 -2.34055 377.843 -1.41399 377.843 0.385974C377.843 0.588291 377.861 1.32278 377.899 1.52159C381.843 22.4104 386.906 43.0723 393.067 63.4179C396.145 74.7392 401.674 85.2452 409.264 94.1915C413.745 99.3803 418.987 103.859 424.813 107.473C433.017 112.792 442.159 116.484 451.739 118.357C453.432 118.687 455.157 118.81 456.882 118.81C461.027 118.75 465.003 117.163 468.051 114.354C471.099 111.546 473.005 107.711 473.403 103.586C474.05 97.4479 474.05 91.2592 473.403 85.1214V81.5582C471.269 61.2421 473.477 40.7045 479.881 21.3066C482.272 15.0348 485.329 9.03934 489.001 3.42316C489.388 2.83111 489.599 2.14079 489.599 1.43346C489.599 0.869113 489.727 0.308764 490.012 -0.17778C490.216 -0.523764 490.433 -0.860907 490.664 -1.1884C491.881 -2.91538 494.008 -3.63628 496.12 -3.63628H525.88C528.385 -3.63628 530.415 -1.60587 530.415 0.898782C530.254 2.2979 530.254 3.7108 530.415 5.10991C531.248 16.566 532.981 27.9387 535.598 39.1229C536.984 45.7787 535.829 52.7124 532.359 58.5589C527.076 68.6822 522.365 79.0931 518.246 89.7427C517.938 90.5417 517.782 91.3914 517.782 92.2479C517.782 94.3922 517.428 96.5241 516.688 98.5363C512.396 110.199 507.014 121.434 500.613 132.092C497.405 136.977 493.473 141.346 488.952 145.049C486.442 147.12 483.547 148.673 480.433 149.619C477.319 150.564 474.049 150.882 470.811 150.556ZM471.173 150.737C471.082 150.691 471.114 150.553 471.215 150.551C476.577 150.443 481.768 148.631 486.036 145.373C490.845 141.755 494.914 137.246 498.022 132.092C505.829 119.549 512.238 106.188 517.134 92.2479C521.487 81.1255 526.573 70.304 532.359 59.8546C535.781 53.402 536.923 45.982 535.598 38.799C533.831 28.0925 532.965 17.2568 533.007 6.40565C533.007 0.859641 528.511 -3.63628 522.965 -3.63628H500.957C496.956 -3.63628 492.747 -2.47331 490.793 1.01835C490.139 2.18864 489.533 3.39525 488.796 4.51557C485.198 9.98418 482.208 15.8318 479.881 21.9544C473.529 41.5867 471.322 62.3245 473.403 82.8539C474.374 89.8388 474.374 96.9246 473.403 103.91C473.082 107.75 471.347 111.334 468.534 113.967C465.721 116.601 462.031 118.096 458.178 118.163C456.453 118.163 454.727 118.047 453.032 117.726C443.674 115.954 434.746 112.363 426.756 107.149C421.042 103.644 415.906 99.2724 411.532 94.1915C404.116 85.2986 398.703 74.9134 395.659 63.7418C389.812 44.1144 384.773 24.0832 380.542 3.64824C380.253 2.25117 380.247 0.908849 379.991 -0.494723C379.535 -3.00067 376.214 -3.31235 373.667 -3.31235H355.406C345.243 -3.31235 337.401 6.14537 343.182 14.504C346.602 19.0301 350.279 23.3563 354.195 27.4613C360.678 34.9222 366.326 43.0688 371.04 51.7563C376.871 62.4461 381.082 73.7838 386.265 84.1496C391.738 95.2349 399.332 105.14 408.616 113.304C420.988 124.079 433.967 134.137 447.488 143.429C452.278 147.067 457.806 149.61 463.685 150.88C466.161 151.179 468.663 151.191 471.141 150.917C471.236 150.906 471.258 150.779 471.173 150.737Z" fill="white" fill-opacity="0.2"/>
<path d="M97.9957 -0.0749647L91.9256 -1.99186C91.8702 -2.00934 91.8108 -2.01141 91.7541 -1.99913C91.3761 -1.91729 91.3907 -2.01856 91.7774 -2.01856H102.032C103.642 -2.01856 103.929 -0.29314 102.338 -0.0485454C100.905 0.171572 99.4529 0.271776 97.9957 0.248968L-nan -nanL97.9957 0.248968M97.9957 -0.23837C97.9957 0.0303113 98.2144 0.248086 98.483 0.242056C99.7191 0.214305 100.948 0.108937 102.162 -0.0718891C106.201 -0.673242 105.209 -4.93396 101.125 -4.93396L89.9268 -4.93396C88.2694 -4.93396 87.2756 -3.18743 88.5922 -2.18061C89.4052 -1.55888 90.3316 -1.10489 91.3173 -0.84283C91.6627 -0.75101 92.0209 -0.722831 92.3783 -0.722831H97.5113C97.7788 -0.722831 97.9957 -0.50593 97.9957 -0.23837Z" fill="white" fill-opacity="0.2"/>
<path d="M459.171 117.189H457.552C442.62 115.515 428.637 109.035 417.708 98.7247C404.33 85.8914 395.466 69.0723 392.441 50.7825L390.174 42.3603C383.744 17.7153 402.777 -4.93396 428.247 -4.93396H482.988C487.745 -4.93396 490.967 -0.143364 488.325 3.81223L486.382 6.4037C479.916 17.2769 475.934 29.4446 474.72 42.0364C473.248 50.3749 472.597 58.8376 472.777 67.3031V80.2605C472.777 81.9715 472.777 83.773 472.777 85.617C472.777 88.9496 473.242 92.2779 473.194 95.6101C473.164 97.7562 472.864 99.8966 472.295 101.98C471.286 105.681 469.458 109.107 466.946 112.006C465.723 113.254 464.26 114.241 462.646 114.909C461.031 115.577 459.299 115.912 457.552 115.893M457.187 116.44C457.401 116.119 457.806 115.99 458.173 116.108C460.175 116.75 462.296 116.952 464.389 116.697C468.959 116.14 472.538 112.527 474.305 108.276C474.905 106.833 475.378 105.336 475.717 103.801C476.115 101.994 476.323 100.155 476.339 98.3157C476.375 94.25 475.721 90.194 475.663 86.1285C475.605 82.0714 475.431 78.0143 474.911 73.9572C474.479 70.5887 474.004 67.2135 474.07 63.8182C474.2 57.1674 474.851 50.5344 476.016 43.9799C477.198 31.6818 480.934 19.7686 486.982 9.00176C487.228 8.56507 487.512 8.15009 487.816 7.75228C492.1 2.15259 487.316 -4.93396 480.265 -4.93396L430.932 -4.93396C403.254 -4.93396 382.19 20.1359 389.721 46.7698C389.978 47.6761 390.236 48.5818 390.497 49.4868C393.677 67.9815 402.636 84.9927 416.088 98.0768C427.262 108.348 441.349 114.889 456.397 116.802C456.707 116.842 457.013 116.701 457.187 116.44Z" fill="white" fill-opacity="0.2"/>
<path d="M10.1782 148.287C7.33968 148.295 4.50595 148.116 1.69522 147.753C-2.38606 147.226 -6.47587 146.667 -10.5911 146.667H-13.4689C-14.3634 146.667 -15.0886 145.942 -15.0886 145.048V126.003C-15.0886 124.177 -13.608 122.696 -11.7815 122.696C-11.3977 122.696 -11.017 122.764 -10.6552 122.892C-5.2681 124.8 0.30224 126.145 5.96708 126.908H10.8261C13.1979 126.908 15.5949 126.809 17.8504 126.075C21.9 124.758 25.5215 122.317 28.2739 119.005C31.7901 114.774 33.648 109.408 33.5014 103.908C34.1029 95.2301 31.4496 86.639 26.0593 79.8113C20.669 72.9836 12.9283 68.409 4.34742 66.9799C0.899636 66.6578 -2.57067 66.6578 -6.01845 66.9799H-11.2014C-11.2014 66.9799 -13.7928 65.8197 -13.7928 64.3885V53.6481C-13.7928 46.4533 -8.07268 40.4848 -0.892703 40.9472C5.65701 41.3691 12.1726 42.2738 18.6005 43.6567C26.2127 45.0913 33.2292 48.7493 38.764 54.1687C44.2987 59.5882 48.1036 66.5261 49.6981 74.1065C53.229 87.3727 53.229 101.332 49.6981 114.598C48.2009 122.637 44.3049 130.034 38.5228 135.816C32.7408 141.598 25.3436 145.494 17.3047 146.991C14.9412 147.328 12.5418 147.328 10.1782 146.991M10.1782 145.841C10.1782 146.499 10.6667 147.058 11.3222 147.116C13.4216 147.303 15.5361 147.261 17.6287 146.991C25.5786 145.295 32.8675 141.333 38.6155 135.585C44.3636 129.837 48.3251 122.548 50.022 114.598C53.372 101.185 53.2606 87.1408 49.6981 73.7825C48.4081 66.1249 44.9433 58.9997 39.7168 53.2563C34.4903 47.5129 27.7225 43.3935 20.2201 41.3892C9.58768 39.0607 -1.29581 38.0812 -12.1732 38.4738C-13.7833 38.4738 -15.0886 39.7791 -15.0886 41.3892V65.0363C-15.0886 68.3587 -8.68702 66.656 -5.36464 66.656H1.55929C3.19918 66.656 4.84331 66.7652 6.43598 67.1559C13.9056 68.9883 20.5608 73.3072 25.2823 79.4397C30.5065 86.2253 32.9789 94.7318 32.2057 103.26C32.2887 108.402 30.5432 113.407 27.2802 117.382C24.7756 120.433 21.5019 122.725 17.8272 124.042C15.5956 124.842 13.1968 124.964 10.8261 124.964L5.96708 124.64C0.512258 123.929 -4.84752 122.623 -10.0169 120.747C-10.5872 120.54 -11.1883 120.429 -11.7949 120.429H-12.1273C-12.794 120.429 -13.4501 120.169 -14.1168 120.169C-14.7465 120.169 -15.0886 120.817 -15.0886 121.447L-15.0886 134.034C-15.0886 139.759 -10.4476 144.4 -4.72272 144.4C-0.2453 144.831 4.26017 144.873 8.743 144.525C9.51296 144.465 10.1782 145.068 10.1782 145.841Z" fill="white" fill-opacity="0.2"/>
<path d="M11.15 126.584C4.05538 126.326 -2.94854 124.903 -9.58171 122.373L-nan -nanL-9.58171 122.373L-12.5762 121.845C-14.0293 121.589 -15.0886 120.326 -15.0886 118.85V74.7552C-15.0886 70.6404 -11.7529 67.3047 -7.63811 67.3047C-2.69181 66.6639 2.31651 66.6639 7.26281 67.3047C11.4579 68.3718 15.3965 70.2689 18.8461 72.8839C22.2956 75.4989 25.1861 78.7787 27.3467 82.5296C29.8974 86.7089 31.5338 91.3813 32.148 96.2389C32.7622 101.096 32.3402 106.029 30.9099 110.712C29.801 114.8 27.4079 118.423 24.0834 121.047C20.759 123.672 16.6793 125.159 12.4457 125.289L-nan -nanL12.4457 125.289M11.8282 127.141C12.1997 126.027 13.2261 125.277 14.3912 125.125C18.1992 124.63 21.8165 123.116 24.8531 120.726C28.403 117.933 30.977 114.087 32.2057 109.74C34.2235 100.821 32.7674 91.4685 28.1337 83.5853C24.2335 76.9499 18.3288 71.7751 11.3251 68.7672C8.6829 67.6325 5.83324 67.0659 2.96192 66.9097C-0.573056 66.7174 -4.12126 66.8491 -7.63811 67.3047C-11.7529 67.3047 -15.0886 70.6404 -15.0886 74.7552V117.591C-15.0886 120.536 -13.4711 123.244 -10.8774 124.641C-4.47868 127.015 2.21379 128.493 9.01012 129.036C10.2735 129.137 11.4274 128.344 11.8282 127.141Z" fill="white" fill-opacity="0.2"/>
<path d="M189.651 342.972C185.116 342.972 182.849 339.733 182.525 333.578C182.421 328.94 182.757 324.307 183.525 319.743C184.339 314.902 184.947 309.971 186.217 305.229C187.336 301.053 189.075 296.843 190.299 292.762C192.243 286.284 193.862 281.101 195.158 275.27C197.768 262.117 197.768 248.579 195.158 235.426C194.876 231.436 194.876 227.431 195.158 223.441C195.158 217.974 197.458 214.552 201.149 213.855C202.108 213.674 203.091 213.609 204.064 213.539C206.313 213.377 208.445 214.357 210.267 215.685C212.893 217.597 215.419 219.646 217.834 221.821C226.256 227.652 235.002 232.835 243.748 237.694L248.283 240.285C255.561 243.86 262.23 248.561 268.043 254.214C270.621 256.354 272.708 259.024 274.161 262.043C275.614 265.061 276.4 268.357 276.465 271.707C276.573 275.779 275.853 279.831 274.349 283.617C272.846 287.403 270.591 290.845 267.719 293.734C260.725 300.501 252.753 306.18 244.072 310.579C233.382 318.029 221.721 325.48 211.679 332.93C207.352 335.843 202.718 338.263 197.863 340.147C195.663 341.002 193.307 341.352 190.947 341.352M190.461 343.944C190.743 342.441 192.055 341.352 193.584 341.352H194.264C194.642 341.352 195.019 341.299 195.381 341.191C201.059 339.493 206.526 337.156 211.679 334.226L245.692 311.55C253.306 306.862 260.276 301.2 266.423 294.706C269.582 291.695 272.099 288.077 273.825 284.069C275.551 280.061 276.449 275.746 276.465 271.383C276.304 264.91 273.633 258.753 269.015 254.214C263.209 248.063 256.422 242.918 248.931 238.989C238.565 233.159 228.199 227.652 218.481 220.849C216.136 219.1 213.677 217.512 211.119 216.097C209.362 215.124 207.444 214.37 205.435 214.408C203.759 214.44 202.05 214.563 200.441 215.035C196.724 216.124 194.455 219.805 194.186 225.708C193.866 229.697 193.866 233.705 194.186 237.694C196.779 250.739 196.779 264.168 194.186 277.214C191.271 289.847 186.736 301.832 184.144 314.466C182.325 321.444 181.453 328.635 181.553 335.845C181.553 341.687 183.73 345.135 187.37 346.188C188.838 346.613 190.179 345.446 190.461 343.944Z" fill="white" fill-opacity="0.2"/>
<path d="M430.029 66.6579C428.555 66.6579 427.082 66.2287 426.033 65.1927C424.915 64.0872 423.974 62.8081 423.252 61.4005C422.182 59.3182 421.619 57.0132 421.606 54.6724C421.5 52.8664 421.794 51.0593 422.466 49.3796C422.85 48.4182 423.353 47.512 423.961 46.6812C424.864 45.4485 426.24 44.4879 427.76 44.6401C428.643 44.7287 429.51 44.9921 430.356 45.2625C431.386 45.5917 432.35 46.1104 433.196 46.7957C434.391 47.7624 435.309 49.0267 435.859 50.4612C437.202 53.197 437.673 56.2786 437.209 59.2906C436.915 61.2041 436.252 63.031 435.269 64.6747C434.15 66.5462 432.066 68.0846 430.029 67.3058M431.648 66.6579C431.379 66.7655 431.449 67.0053 431.719 66.8982C431.939 66.8108 432.154 66.7105 432.363 66.5978C433.803 65.8228 434.9 64.5291 435.933 63.2622C437.43 61.4262 438.504 59.2697 439.063 56.9463C439.815 53.8231 439.601 50.5452 438.451 47.5458C437.802 45.992 436.785 44.6195 435.487 43.5471C434.851 43.0218 434.157 42.5763 433.421 42.218C431.889 41.4725 430.101 41.294 428.483 41.8264C426.82 42.3731 425.501 43.641 424.582 45.1299C423.875 46.276 423.311 47.5087 422.907 48.8006C422.24 50.9329 422.021 53.1802 422.265 55.4011C422.508 57.6221 423.208 59.7687 424.322 61.7059C424.944 62.7887 425.687 63.793 426.536 64.7002C427.865 66.1216 429.764 67.1444 431.648 66.6579Z" fill="white" fill-opacity="0.2"/>
<path d="M206.804 4.4601C204.687 4.37693 202.654 3.60397 201.017 2.25894C199.432 0.957327 198.302 -0.810981 197.784 -2.79151C197.749 -2.92326 197.734 -3.05916 197.734 -3.19534C197.734 -4.15556 198.512 -4.93396 199.472 -4.93396H208.989C214.699 -4.93396 217.487 1.24155 212.267 3.55472C211.87 3.73048 211.45 3.86349 211.021 3.92753C209.729 4.12045 208.41 4.08202 207.128 3.81223M206.342 4.99149C206.794 4.3128 207.671 4.07473 208.44 4.34731C209.163 4.60367 209.904 4.80508 210.658 4.94974C211.315 5.07586 211.994 4.99876 212.616 4.75118C212.882 4.645 213.147 4.5343 213.409 4.41915C219.19 1.87944 216.046 -4.93396 209.732 -4.93396L197.493 -4.93396C196.374 -4.93396 195.466 -4.02678 195.466 -2.9077C195.466 -2.74742 195.485 -2.58747 195.526 -2.43253C196.122 -0.181783 197.417 1.8244 199.227 3.29526C200.861 4.62317 202.837 5.4506 204.916 5.68925C205.484 5.7544 206.025 5.46687 206.342 4.99149Z" fill="white" fill-opacity="0.2"/>
<path d="M94.4429 303.127C91.8908 303.648 89.3125 302.705 86.9492 301.61C81.4792 299.075 76.4572 295.649 72.0915 291.466C63.6693 284.339 54.5991 277.537 45.529 271.058L30.3042 259.072C28.5459 257.875 26.9263 256.494 25.4715 254.954C23.3242 252.682 21.2963 250.255 19.6493 247.598C18.8742 246.347 18.2243 245.019 17.7114 243.631C16.6535 240.77 16.2016 237.72 16.3843 234.674C16.567 231.629 17.3804 228.655 18.7728 225.94C19.3615 224.792 20.0483 223.702 20.8238 222.68C22.9398 219.891 25.5511 217.5 28.0258 215.023C30.7982 212.25 33.8393 209.751 37.1068 207.567L74.2434 180.905C74.7399 180.548 75.3357 180.357 75.9469 180.357C76.5973 180.357 77.2272 180.137 77.7491 179.749C80.4973 177.705 83.4688 175.986 86.604 174.623C88.965 173.597 91.5445 173.23 94.119 173.23C98.3301 173.23 100.922 175.822 102.865 180.681C105.674 188.681 106.884 197.156 106.428 205.623C106.428 214.046 106.428 222.792 106.428 230.89V237.045C105.646 246.098 105.646 255.202 106.428 264.255C106.428 266.199 106.428 268.142 106.428 270.086C107.404 277.071 107.404 284.157 106.428 291.142C106.016 293.557 105.136 295.867 103.837 297.944C102.883 299.598 101.515 300.975 99.8681 301.94C98.2213 302.905 96.3518 303.426 94.4429 303.451M94.4429 303.931C94.4429 303.664 94.6556 303.447 94.922 303.43C96.9074 303.304 98.8394 302.722 100.567 301.727C102.434 300.653 104.003 299.13 105.133 297.296C106.33 294.942 107.202 292.435 107.724 289.846C109.018 280.931 109.018 271.875 107.724 262.96C107.077 253.901 107.077 244.808 107.724 235.749C107.724 225.383 107.724 215.017 107.724 203.356C108.181 194.782 106.971 186.202 104.161 178.089C103.659 175.77 102.4 173.683 100.582 172.158C98.764 170.634 96.4902 169.757 94.119 169.667C91.3321 169.667 88.5434 170.094 85.9995 171.232C82.4568 172.817 79.0957 174.79 75.9787 177.117C62.6975 189.427 49.7402 198.497 36.4589 208.215C31.5404 211.377 27.0728 215.191 23.1776 219.552C18.8515 223.725 16.2508 229.371 15.8908 235.37C15.5308 241.37 17.4379 247.286 21.234 251.946C23.6282 255.044 26.4662 257.773 29.6563 260.044C43.2615 270.734 57.8385 280.452 71.1197 292.437C76.4312 297.577 82.7321 301.578 89.637 304.201C90.0296 304.35 90.4467 304.423 90.8666 304.423H93.9506C94.2225 304.423 94.4429 304.203 94.4429 303.931Z" fill="white" fill-opacity="0.2"/>
<path d="M445.883 275.916C440.65 275.481 435.57 273.935 430.982 271.381C421.073 265.904 411.925 259.152 403.771 251.298C395.594 242.893 389.3 232.845 385.307 221.82C379.063 204.262 369.98 187.847 358.421 173.23C356.735 170.985 355.24 168.606 353.95 166.118C352.737 163.781 351.293 161.441 351.008 158.822C350.973 158.498 350.955 158.171 350.955 157.843C350.955 156.187 351.409 154.562 352.266 153.146C353.126 151.912 354.3 150.931 355.667 150.304C357.035 149.677 358.544 149.428 360.04 149.583L-nan -nanL360.04 149.583C366.832 150.211 373.379 152.43 379.153 156.061C389.236 162.568 398.298 170.538 406.039 179.708C416.825 193.234 428.285 206.208 440.376 218.58L446.207 224.411C450.009 227.728 453.58 231.299 456.896 235.101C460.384 238.815 463.036 243.233 464.671 248.058C465.559 250.898 465.845 253.891 465.511 256.848C465.176 259.804 464.228 262.658 462.727 265.227C461.349 267.682 459.492 269.836 457.266 271.56C455.04 273.285 452.491 274.546 449.77 275.269L-nan -nanL449.77 275.269H445.883M445.573 277.128C445.752 276.055 446.68 275.269 447.768 275.269H449.762C450.197 275.269 450.631 275.209 451.044 275.076C456.69 273.252 461.437 269.342 464.306 264.131C467.281 258.728 467.994 252.366 466.291 246.439C464.626 241.363 461.86 236.717 458.192 232.833C453.009 227.003 447.178 221.82 441.672 216.313C429.362 204.003 418.348 191.046 407.335 177.765C399.844 168.084 390.75 159.757 380.448 153.146C374.671 149.228 367.972 146.883 361.012 146.343L-nan -nanL361.012 146.343C359.309 146.182 357.594 146.489 356.053 147.231C354.512 147.974 353.202 149.123 352.266 150.554C351.221 152.141 350.664 153.999 350.664 155.899C350.664 155.931 350.664 155.964 350.665 155.996C350.702 159.695 352.857 163.031 354.656 166.263C355.761 168.246 357.019 170.142 358.421 171.934C369.578 187.078 378.219 203.923 384.012 221.82C387.573 233.832 393.771 244.899 402.152 254.213C410.306 262.209 419.581 268.975 429.686 274.297C433.86 276.684 438.444 278.251 443.192 278.923C444.342 279.086 445.382 278.273 445.573 277.128Z" fill="white" fill-opacity="0.2"/>
</g>
<defs>
<linearGradient id="paint0_linear_1_493" x1="234" y1="0" x2="234" y2="924.923" gradientUnits="userSpaceOnUse">
<stop stop-color="#FA846A"/>
<stop offset="1" stop-color="#D03B1A"/>
</linearGradient>
</defs>
</svg>
