<svg width="143" height="31" viewBox="0 0 143 31" fill="none" xmlns="http://www.w3.org/2000/svg">
<path d="M29.8982 26.5964L23.3371 16.9286C23.1827 16.6984 22.9511 16.4682 22.7196 16.3148L22.1792 15.9312C21.5617 15.4708 21.5617 14.6268 22.1792 14.1664L22.6424 13.8595C22.874 13.706 23.1055 13.4759 23.2599 13.2457L29.9754 3.73138C30.5158 2.88738 30.5929 1.81318 29.9754 1.0459C29.2035 0.0484359 27.8141 -0.181746 26.8106 0.508807L17.0847 7.03069C16.8531 7.18415 16.6216 7.41433 16.4672 7.64452L16.0812 8.18162C15.6181 8.79544 14.769 8.79544 14.3059 8.18162L13.9971 7.72124C13.8427 7.49106 13.6112 7.26088 13.3796 7.10742L3.80803 0.432074C2.95894 -0.105023 1.87828 -0.181751 1.10638 0.432074C0.102914 1.19935 -0.128653 2.58047 0.566056 3.57793L7.1272 13.2457C7.28158 13.4759 7.51315 13.706 7.74472 13.8595L8.28505 14.2431C8.90257 14.7035 8.90257 15.5475 8.28505 16.0079L7.82191 16.3148C7.59034 16.4682 7.35878 16.6984 7.2044 16.9286L0.411679 26.5196C-0.205841 27.4404 -0.128649 28.668 0.643251 29.4353C1.41515 30.2026 2.65018 30.356 3.57646 29.7422L13.3024 23.2203C13.534 23.0669 13.7655 22.8367 13.9199 22.6065L14.3059 22.0694C14.769 21.4556 15.6181 21.4556 16.0812 22.0694L16.39 22.5298C16.5444 22.7599 16.7759 22.9901 17.0075 23.1436L26.7334 29.8957C27.6597 30.5095 28.8948 30.4328 29.6667 29.6655C30.4386 28.7447 30.5158 27.5171 29.8982 26.5964Z" fill="#E3B748"/>
<path d="M41.6951 7.92908H45.1187V23.2136H41.6951V7.92908Z" fill="white"/>
<path d="M56.0569 10.5757C54.4621 10.5757 53.3063 11.0242 52.5894 11.9211C51.8871 12.8034 51.5359 14.0164 51.5359 15.5603C51.5359 16.3102 51.6237 16.9939 51.7993 17.6115C51.9749 18.2143 52.2382 18.7363 52.5894 19.1774C52.9405 19.6185 53.3794 19.964 53.9061 20.214C54.4328 20.4493 55.0473 20.5669 55.7496 20.5669C56.13 20.5669 56.4519 20.5595 56.7152 20.5448C56.9932 20.5301 57.2346 20.5007 57.4395 20.4566V15.1412H60.8631V22.7063C60.4534 22.868 59.795 23.0371 58.8879 23.2136C57.9808 23.4047 56.8615 23.5003 55.5301 23.5003C54.3889 23.5003 53.3502 23.3238 52.4138 22.9709C51.492 22.6181 50.702 22.1034 50.0436 21.4271C49.3852 20.7507 48.8731 19.9199 48.5074 18.9348C48.1562 17.9496 47.9807 16.8248 47.9807 15.5603C47.9807 14.2811 48.1782 13.1489 48.5732 12.1637C48.9682 11.1786 49.5096 10.3478 50.1972 9.67147C50.8849 8.98039 51.6896 8.45841 52.6113 8.10553C53.5477 7.75264 54.5426 7.57619 55.596 7.57619C56.3129 7.57619 56.9567 7.62766 57.5273 7.73058C58.1125 7.8188 58.6099 7.92908 59.0196 8.06141C59.4439 8.17904 59.7877 8.30403 60.0511 8.43636C60.329 8.56869 60.5266 8.67162 60.6436 8.74514L59.656 11.5021C59.1878 11.2521 58.6465 11.0389 58.032 10.8625C57.4322 10.6713 56.7738 10.5757 56.0569 10.5757Z" fill="white"/>
<path d="M68.1964 20.589C68.6792 20.589 69.0742 20.5522 69.3815 20.4787C69.7033 20.3904 69.9594 20.2802 70.1496 20.1478C70.3398 20.0008 70.4715 19.8317 70.5446 19.6406C70.6178 19.4494 70.6543 19.2362 70.6543 19.001C70.6543 18.501 70.4202 18.0893 69.9521 17.7658C69.4839 17.4277 68.6792 17.0674 67.538 16.6851C67.0405 16.5087 66.5431 16.3102 66.0456 16.0896C65.5482 15.8544 65.1019 15.5676 64.7069 15.2295C64.3119 14.8766 63.99 14.4575 63.7413 13.9723C63.4926 13.4724 63.3682 12.8695 63.3682 12.1637C63.3682 11.458 63.4999 10.8257 63.7632 10.267C64.0266 9.69352 64.3997 9.2083 64.8825 8.8113C65.3653 8.4143 65.9505 8.11288 66.6382 7.90703C67.3258 7.68647 68.1013 7.57619 68.9645 7.57619C69.9886 7.57619 70.8738 7.68647 71.62 7.90703C72.3661 8.12758 72.9806 8.37019 73.4635 8.63486L72.4759 11.3477C72.0516 11.1271 71.5761 10.936 71.0494 10.7742C70.5373 10.5978 69.9155 10.5096 69.1839 10.5096C68.3646 10.5096 67.7721 10.6272 67.4063 10.8625C67.0552 11.083 66.8796 11.4286 66.8796 11.8991C66.8796 12.1784 66.9454 12.4137 67.0771 12.6049C67.2088 12.796 67.3917 12.9724 67.6258 13.1342C67.8745 13.2812 68.1525 13.4209 68.4597 13.5532C68.7816 13.6709 69.1327 13.7958 69.5131 13.9282C70.3032 14.2223 70.9908 14.5163 71.5761 14.8104C72.1613 15.0898 72.6441 15.4206 73.0245 15.8029C73.4196 16.1852 73.7122 16.6337 73.9024 17.1483C74.0926 17.6629 74.1877 18.2878 74.1877 19.023C74.1877 20.4493 73.6902 21.5594 72.6953 22.3534C71.7004 23.1327 70.2008 23.5223 68.1964 23.5223C67.5233 23.5223 66.9162 23.4782 66.3748 23.39C65.8335 23.3165 65.3507 23.2209 64.9264 23.1033C64.5167 22.9856 64.1583 22.8607 63.851 22.7283C63.5584 22.596 63.3097 22.471 63.1048 22.3534L64.0705 19.6185C64.524 19.8685 65.08 20.0964 65.7384 20.3022C66.4114 20.4934 67.2307 20.589 68.1964 20.589Z" fill="white"/>
<path d="M87.6736 7.92908V10.8625H83.0869V23.2136H79.6633V10.8625H75.0765V7.92908H87.6736Z" fill="white"/>
<path d="M95.8213 23.5223C94.7533 23.5223 93.8315 23.3753 93.0561 23.0812C92.2807 22.7724 91.6369 22.3534 91.1248 21.8241C90.6274 21.28 90.2543 20.6404 90.0056 19.9052C89.7715 19.1553 89.6544 18.3319 89.6544 17.435V7.92908H93.078V17.1483C93.078 17.7658 93.1439 18.2952 93.2756 18.7363C93.4219 19.1627 93.6121 19.5156 93.8462 19.795C94.0949 20.0596 94.3875 20.2508 94.724 20.3684C95.0752 20.486 95.4556 20.5448 95.8652 20.5448C96.6992 20.5448 97.3722 20.2875 97.8843 19.7729C98.411 19.2583 98.6743 18.3834 98.6743 17.1483V7.92908H102.098V17.435C102.098 18.3319 101.974 19.1553 101.725 19.9052C101.476 20.6551 101.096 21.3021 100.584 21.8461C100.072 22.3754 99.4205 22.7871 98.6304 23.0812C97.8404 23.3753 96.904 23.5223 95.8213 23.5223Z" fill="white"/>
<path d="M108.814 20.4125C108.975 20.4272 109.158 20.4419 109.363 20.4566C109.582 20.4566 109.838 20.4566 110.131 20.4566C111.843 20.4566 113.108 20.0229 113.928 19.1553C114.762 18.2878 115.179 17.0895 115.179 15.5603C115.179 13.9576 114.784 12.7445 113.993 11.9211C113.203 11.0977 111.952 10.686 110.241 10.686C110.007 10.686 109.765 10.6934 109.516 10.7081C109.268 10.7081 109.034 10.7228 108.814 10.7522V20.4125ZM118.712 15.5603C118.712 16.8836 118.507 18.0379 118.097 19.023C117.688 20.0082 117.103 20.8242 116.342 21.4712C115.596 22.1181 114.681 22.6034 113.598 22.9268C112.516 23.2503 111.301 23.4121 109.955 23.4121C109.341 23.4121 108.624 23.3826 107.805 23.3238C106.985 23.2797 106.181 23.1768 105.391 23.0151V8.12758C106.181 7.98055 107 7.88497 107.849 7.84086C108.712 7.78205 109.451 7.75264 110.065 7.75264C111.367 7.75264 112.545 7.89967 113.598 8.19375C114.666 8.48782 115.581 8.95099 116.342 9.58325C117.103 10.2155 117.688 11.0242 118.097 12.0094C118.507 12.9945 118.712 14.1781 118.712 15.5603Z" fill="white"/>
<path d="M121.572 7.92908H124.995V23.2136H121.572V7.92908Z" fill="white"/>
<path d="M131.39 15.5603C131.39 16.3102 131.478 16.9865 131.654 17.5894C131.844 18.1922 132.107 18.7142 132.444 19.1553C132.795 19.5817 133.219 19.9126 133.717 20.1478C134.214 20.3831 134.785 20.5007 135.429 20.5007C136.058 20.5007 136.621 20.3831 137.118 20.1478C137.63 19.9126 138.055 19.5817 138.391 19.1553C138.742 18.7142 139.006 18.1922 139.181 17.5894C139.372 16.9865 139.467 16.3102 139.467 15.5603C139.467 14.8104 139.372 14.134 139.181 13.5312C139.006 12.9136 138.742 12.3916 138.391 11.9652C138.055 11.5241 137.63 11.1859 137.118 10.9507C136.621 10.7154 136.058 10.5978 135.429 10.5978C134.785 10.5978 134.214 10.7228 133.717 10.9727C133.219 11.208 132.795 11.5462 132.444 11.9873C132.107 12.4137 131.844 12.9357 131.654 13.5532C131.478 14.1561 131.39 14.8251 131.39 15.5603ZM143 15.5603C143 16.8689 142.802 18.0232 142.407 19.023C142.027 20.0082 141.5 20.8389 140.827 21.5153C140.154 22.1769 139.35 22.6769 138.413 23.0151C137.492 23.3532 136.497 23.5223 135.429 23.5223C134.39 23.5223 133.41 23.3532 132.488 23.0151C131.566 22.6769 130.761 22.1769 130.074 21.5153C129.386 20.8389 128.845 20.0082 128.45 19.023C128.055 18.0232 127.857 16.8689 127.857 15.5603C127.857 14.2517 128.062 13.1048 128.472 12.1196C128.881 11.1198 129.43 10.2817 130.118 9.6053C130.82 8.92893 131.625 8.42165 132.532 8.08347C133.453 7.74529 134.419 7.57619 135.429 7.57619C136.467 7.57619 137.448 7.74529 138.369 8.08347C139.291 8.42165 140.096 8.92893 140.783 9.6053C141.471 10.2817 142.012 11.1198 142.407 12.1196C142.802 13.1048 143 14.2517 143 15.5603Z" fill="white"/>
</svg>
