<svg width="39" height="39" viewBox="0 0 39 39" fill="none" xmlns="http://www.w3.org/2000/svg">
<path d="M32.5 20.6149C33.1157 20.6149 33.6149 20.1158 33.6149 19.5C33.6149 18.8843 33.1157 18.3851 32.5 18.3851L32.5 20.6149ZM6.49998 18.3851C5.88424 18.3851 5.38508 18.8843 5.38508 19.5C5.38508 20.1158 5.88424 20.6149 6.49998 20.6149L6.49998 18.3851ZM12.2152 28.4169C12.6525 28.8503 13.3584 28.8472 13.7918 28.4098C14.2253 27.9725 14.2221 27.2666 13.7848 26.8332L12.2152 28.4169ZM10.1352 24.7856L10.92 23.9938L10.1352 24.7856ZM10.1352 14.2144L10.92 15.0063L10.1352 14.2144ZM13.7848 12.1669C14.2221 11.7334 14.2253 11.0275 13.7918 10.5902C13.3584 10.1529 12.6525 10.1497 12.2152 10.5832L13.7848 12.1669ZM6.5323 20.0092L5.42635 20.1502L5.42635 20.1502L6.5323 20.0092ZM6.5323 18.9909L5.42635 18.8499L5.42635 18.8499L6.5323 18.9909ZM32.5 18.3851L6.49998 18.3851L6.49998 20.6149L32.5 20.6149L32.5 18.3851ZM13.7848 26.8332L10.92 23.9938L9.35033 25.5775L12.2152 28.4169L13.7848 26.8332ZM10.92 15.0063L13.7848 12.1669L12.2152 10.5832L9.35033 13.4225L10.92 15.0063ZM10.92 23.9938C9.75904 22.8432 8.95644 22.0453 8.41222 21.3677C7.88212 20.7076 7.68952 20.2705 7.63825 19.8682L5.42635 20.1502C5.55096 21.1278 6.01747 21.9468 6.67367 22.7639C7.31574 23.5634 8.22663 24.4638 9.35033 25.5775L10.92 23.9938ZM9.35033 13.4225C8.22663 14.5363 7.31574 15.4367 6.67367 16.2362C6.01747 17.0533 5.55096 17.8723 5.42635 18.8499L7.63825 19.1318C7.68952 18.7295 7.88212 18.2925 8.41222 17.6324C8.95644 16.9547 9.75904 16.1569 10.92 15.0063L9.35033 13.4225ZM7.63825 19.8682C7.60708 19.6237 7.60708 19.3763 7.63825 19.1318L5.42635 18.8499C5.37133 19.2816 5.37132 19.7184 5.42635 20.1502L7.63825 19.8682Z" fill="#373737"/>
</svg>
